%
M48
M72
T01C0.0236
T02C0.0315
T03C0.0320
T04C0.0354
T05C0.0360
T06C0.0394
T07C0.0400
T08C0.0440
T09C0.0472
T10C0.1181
T11C0.1300
%
T01
X25835Y17920
X27035Y17920
T02
X24385Y12670
X23385Y12670
X10135Y5420
X10135Y3420
T03
X16302Y3597
X18302Y3597
X18302Y4409
X16302Y4409
X19385Y8270
X20385Y8270
X21385Y8270
X22385Y8270
X23385Y8270
X24385Y8270
X25385Y8270
X26385Y8270
X27385Y8270
X28385Y8270
X29385Y8270
X30385Y8270
X31385Y8270
X32385Y8270
X34675Y8470
X35985Y8270
X35985Y7270
X35985Y6270
X35985Y5270
X38985Y5270
X38985Y6270
X38985Y7270
X38985Y8270
X38985Y9270
X38985Y10270
X38985Y11270
X38985Y12270
X35985Y12270
X35985Y11270
X34675Y10470
X35985Y10270
X35985Y9270
X32385Y11270
X31385Y11270
X30385Y11270
X29385Y11270
X28385Y11270
X27385Y11270
X26385Y11270
X25385Y11270
X24385Y11270
X23385Y11270
X22385Y11270
X21385Y11270
X20385Y11270
X19385Y11270
X19814Y12358
X20814Y12358
X20774Y13290
X19862Y13290
X22485Y13970
X22485Y14970
X20774Y15290
X19862Y15290
X17229Y15715
X15961Y15482
X14961Y15482
X13750Y15713
X13750Y14713
X15461Y14732
X17229Y14715
X14435Y13283
X14435Y12283
X18442Y16677
X19442Y16677
X17055Y16920
X17035Y17920
X15035Y17920
X14055Y16920
X25235Y14940
X26385Y15642
X25235Y13940
X26385Y13642
X26385Y12570
X27377Y12562
X25385Y12570
X32377Y12562
X33395Y12465
X33395Y11465
X32435Y7060
X31285Y7050
X30165Y7050
X30165Y6050
X31285Y6050
X32435Y5060
X28385Y4750
X26385Y5920
X25385Y5920
X25385Y7070
X26385Y7070
X25385Y4750
T04
X25235Y16120
X22535Y16120
T05
X5535Y11150
X5535Y8590
T06
X5635Y13500
X3745Y14720
X5635Y15901
T07
X10267Y16737
X10267Y14737
X1885Y13570
X1885Y12570
X1885Y11570
X1885Y10570
X1885Y9570
X1885Y8570
X1885Y7570
X4865Y4400
X8865Y4400
X19735Y5020
X20735Y5020
X21735Y5020
X22735Y5020
X23735Y5020
X23735Y6020
X22735Y6020
X21735Y6020
X20735Y6020
X19735Y6020
X30285Y4820
X31285Y4820
X40885Y5270
X40885Y6270
X40885Y7270
X40885Y8270
X40885Y9270
X40885Y10270
X40885Y11270
X40885Y12270
X40885Y13270
X40885Y14270
X35635Y14520
X34635Y14520
X33635Y14520
X32635Y14520
X31635Y14520
X30635Y14520
X29585Y14520
X28585Y14520
X27585Y14520
T08
X16695Y10270
X18078Y9423
X16695Y9270
X16695Y8270
X18078Y5423
T09
X17465Y11583
X17465Y13158
T10
X1885Y2420
X1885Y17120
X40885Y17120
X40885Y2420
T11
X9795Y9270
M30
