G75*
G70*
%OFA0B0*%
%FSLAX24Y24*%
%IPPOS*%
%LPD*%
%AMOC8*
5,1,8,0,0,1.08239X$1,22.5*
%
%ADD10C,0.0520*%
%ADD11OC8,0.0520*%
%ADD12C,0.0660*%
%ADD13OC8,0.0850*%
%ADD14OC8,0.0630*%
%ADD15C,0.0630*%
%ADD16C,0.0600*%
%ADD17R,0.0515X0.0515*%
%ADD18C,0.0787*%
%ADD19C,0.1000*%
%ADD20OC8,0.1000*%
%ADD21C,0.0787*%
%ADD22C,0.0660*%
%ADD23C,0.0560*%
%ADD24OC8,0.0600*%
%ADD25C,0.0160*%
%ADD26R,0.0396X0.0396*%
%ADD27C,0.0240*%
%ADD28C,0.0531*%
%ADD29C,0.0560*%
%ADD30C,0.0120*%
D10*
X019385Y008010D02*
X019385Y008530D01*
X020385Y008530D02*
X020385Y008010D01*
X021385Y008010D02*
X021385Y008530D01*
X022385Y008530D02*
X022385Y008010D01*
X023385Y008010D02*
X023385Y008530D01*
X024385Y008530D02*
X024385Y008010D01*
X025385Y008010D02*
X025385Y008530D01*
X026385Y008530D02*
X026385Y008010D01*
X027385Y008010D02*
X027385Y008530D01*
X028385Y008530D02*
X028385Y008010D01*
X029385Y008010D02*
X029385Y008530D01*
X030385Y008530D02*
X030385Y008010D01*
X031385Y008010D02*
X031385Y008530D01*
X032385Y008530D02*
X032385Y008010D01*
X035725Y008270D02*
X036245Y008270D01*
X036245Y007270D02*
X035725Y007270D01*
X035725Y006270D02*
X036245Y006270D01*
X036245Y005270D02*
X035725Y005270D01*
X038725Y005270D02*
X039245Y005270D01*
X039245Y006270D02*
X038725Y006270D01*
X038725Y007270D02*
X039245Y007270D01*
X039245Y008270D02*
X038725Y008270D01*
X038725Y009270D02*
X039245Y009270D01*
X039245Y010270D02*
X038725Y010270D01*
X038725Y011270D02*
X039245Y011270D01*
X039245Y012270D02*
X038725Y012270D01*
X036245Y012270D02*
X035725Y012270D01*
X035725Y011270D02*
X036245Y011270D01*
X036245Y010270D02*
X035725Y010270D01*
X035725Y009270D02*
X036245Y009270D01*
X032385Y011010D02*
X032385Y011530D01*
X031385Y011530D02*
X031385Y011010D01*
X030385Y011010D02*
X030385Y011530D01*
X029385Y011530D02*
X029385Y011010D01*
X028385Y011010D02*
X028385Y011530D01*
X027385Y011530D02*
X027385Y011010D01*
X026385Y011010D02*
X026385Y011530D01*
X025385Y011530D02*
X025385Y011010D01*
X024385Y011010D02*
X024385Y011530D01*
X023385Y011530D02*
X023385Y011010D01*
X022385Y011010D02*
X022385Y011530D01*
X021385Y011530D02*
X021385Y011010D01*
X020385Y011010D02*
X020385Y011530D01*
X019385Y011530D02*
X019385Y011010D01*
X017315Y016920D02*
X016795Y016920D01*
X014315Y016920D02*
X013795Y016920D01*
D11*
X013750Y015713D03*
X014961Y015482D03*
X015961Y015482D03*
X017229Y015715D03*
X017229Y014715D03*
X015461Y014732D03*
X013750Y014713D03*
X019862Y015290D03*
X020774Y015290D03*
X022485Y014970D03*
X022485Y013970D03*
X020774Y013290D03*
X019862Y013290D03*
X019814Y012358D03*
X020814Y012358D03*
X025235Y013940D03*
X026385Y013642D03*
X026385Y012570D03*
X027377Y012562D03*
X025385Y012570D03*
X025235Y014940D03*
X026385Y015642D03*
X032377Y012562D03*
X033395Y012465D03*
X033395Y011465D03*
X034675Y010470D03*
X034675Y008470D03*
X032435Y007060D03*
X031285Y007050D03*
X030165Y007050D03*
X030165Y006050D03*
X031285Y006050D03*
X032435Y005060D03*
X028385Y004750D03*
X026385Y005920D03*
X025385Y005920D03*
X025385Y007070D03*
X026385Y007070D03*
X025385Y004750D03*
X018302Y004409D03*
X016302Y004409D03*
X016302Y003597D03*
X018302Y003597D03*
X017035Y017920D03*
X015035Y017920D03*
D12*
X018078Y009423D03*
X018078Y005423D03*
D13*
X008865Y004400D03*
X004865Y004400D03*
X005535Y008590D03*
X005535Y011150D03*
D14*
X014435Y012283D03*
X019442Y016677D03*
D15*
X018442Y016677D03*
X014435Y013283D03*
D16*
X002185Y013570D02*
X001585Y013570D01*
X001585Y012570D02*
X002185Y012570D01*
X002185Y011570D02*
X001585Y011570D01*
X001585Y010570D02*
X002185Y010570D01*
X002185Y009570D02*
X001585Y009570D01*
X001585Y008570D02*
X002185Y008570D01*
X002185Y007570D02*
X001585Y007570D01*
X027585Y014220D02*
X027585Y014820D01*
X028585Y014820D02*
X028585Y014220D01*
X029585Y014220D02*
X029585Y014820D01*
X030635Y014820D02*
X030635Y014220D01*
X031635Y014220D02*
X031635Y014820D01*
X032635Y014820D02*
X032635Y014220D01*
X033635Y014220D02*
X033635Y014820D01*
X034635Y014820D02*
X034635Y014220D01*
X035635Y014220D02*
X035635Y014820D01*
X040585Y014270D02*
X041185Y014270D01*
X041185Y013270D02*
X040585Y013270D01*
X040585Y012270D02*
X041185Y012270D01*
X041185Y011270D02*
X040585Y011270D01*
X040585Y010270D02*
X041185Y010270D01*
X041185Y009270D02*
X040585Y009270D01*
X040585Y008270D02*
X041185Y008270D01*
X041185Y007270D02*
X040585Y007270D01*
X040585Y006270D02*
X041185Y006270D01*
X041185Y005270D02*
X040585Y005270D01*
X031285Y005120D02*
X031285Y004520D01*
X030285Y004520D02*
X030285Y005120D01*
D17*
X024385Y012670D03*
X023385Y012670D03*
D18*
X006029Y013500D02*
X005241Y013500D01*
X003745Y014327D02*
X003745Y015114D01*
X005241Y015901D02*
X006029Y015901D01*
D19*
X010267Y016737D03*
D20*
X010267Y014737D03*
D21*
X017465Y013158D03*
X017465Y011583D03*
D22*
X018078Y010970D01*
X018078Y009423D01*
X017925Y009270D01*
X016695Y009270D01*
X017025Y009270D02*
X016365Y009270D01*
X016365Y008270D02*
X017025Y008270D01*
X016695Y008270D02*
X019385Y008270D01*
X017025Y010270D02*
X016365Y010270D01*
D23*
X010135Y005420D03*
X010135Y003420D03*
D24*
X019735Y005020D03*
X020735Y005020D03*
X021735Y005020D03*
X022735Y005020D03*
X023735Y005020D03*
X023735Y006020D03*
X022735Y006020D03*
X021735Y006020D03*
X020735Y006020D03*
X019735Y006020D03*
D25*
X020235Y005520D02*
X020735Y006020D01*
X022135Y007420D01*
X022935Y007420D01*
X023385Y007870D01*
X023385Y008270D01*
X022385Y008070D02*
X020835Y006520D01*
X020735Y006520D01*
X020535Y006520D01*
X019735Y006520D01*
X019725Y006510D01*
X019735Y006520D02*
X005635Y006520D01*
X005195Y006960D01*
X003635Y008620D01*
X002835Y009420D01*
X002835Y010220D01*
X002485Y010570D01*
X001885Y010570D01*
X002285Y011570D02*
X003135Y010720D01*
X003135Y009520D01*
X003935Y008720D01*
X005335Y007220D01*
X005735Y006820D01*
X020635Y006820D01*
X021385Y007570D01*
X021385Y008270D01*
X021385Y008870D01*
X021635Y009120D01*
X023585Y009120D01*
X023885Y008820D01*
X023885Y006170D01*
X023735Y006020D01*
X021735Y006020D02*
X021735Y005770D01*
X021225Y005260D01*
X021225Y004120D01*
X021455Y003910D01*
X026435Y003910D01*
X026945Y004420D01*
X026945Y008780D01*
X028325Y010160D01*
X031775Y010160D01*
X032385Y010770D01*
X032385Y011270D01*
X033200Y011270D01*
X033395Y011465D01*
X032385Y011270D02*
X032385Y012514D01*
X032377Y012562D01*
X032135Y013420D02*
X031385Y012670D01*
X031385Y011270D01*
X030385Y011270D02*
X030385Y012170D01*
X032035Y013720D01*
X033135Y013720D01*
X033635Y014320D01*
X033635Y014520D01*
X034635Y014520D02*
X034635Y014020D01*
X034035Y013420D01*
X032135Y013420D01*
X030635Y013520D02*
X030635Y014520D01*
X031635Y014520D02*
X031635Y017320D01*
X031035Y017920D01*
X036035Y017920D01*
X036535Y017420D01*
X036535Y013520D01*
X036135Y013120D01*
X035435Y013120D01*
X034935Y012620D01*
X034935Y011420D01*
X035585Y010770D01*
X036485Y010770D01*
X036835Y010420D01*
X036835Y008570D01*
X036835Y006120D01*
X036475Y005760D01*
X033365Y005760D01*
X032765Y005060D01*
X032435Y005060D01*
X031285Y005070D02*
X031285Y004820D01*
X031285Y005070D02*
X032435Y006220D01*
X032435Y007060D01*
X032435Y008220D01*
X032385Y008270D01*
X031385Y008270D02*
X030165Y007050D01*
X028065Y007050D01*
X027235Y006220D01*
X027235Y004320D01*
X026512Y003597D01*
X018302Y003597D01*
X018302Y004409D01*
X018302Y004409D01*
X018995Y005520D02*
X018235Y006200D01*
X018235Y006220D01*
X005535Y006220D01*
X005065Y006690D01*
X002285Y009570D01*
X001885Y009570D01*
X002235Y009620D02*
X002285Y009570D01*
X005535Y008590D02*
X005535Y008290D01*
X006705Y007120D01*
X019935Y007120D01*
X020385Y007570D01*
X020385Y008270D01*
X020235Y005520D02*
X018995Y005520D01*
X027385Y008270D02*
X027385Y008770D01*
X028505Y009890D01*
X035055Y009890D01*
X035435Y010270D01*
X035985Y010270D01*
X035035Y009620D02*
X035385Y009270D01*
X035985Y009270D01*
X035035Y009620D02*
X029235Y009620D01*
X028385Y008770D01*
X028385Y008270D01*
X028385Y008370D01*
X029385Y008270D02*
X029385Y008720D01*
X029985Y009320D01*
X033105Y009320D01*
X034955Y007270D01*
X035985Y007270D01*
X035985Y008270D02*
X034875Y008270D01*
X034675Y008470D01*
X035985Y008270D02*
X036535Y008270D01*
X036835Y008570D01*
X038985Y009270D02*
X040885Y009270D01*
X040885Y008270D02*
X040285Y008270D01*
X039285Y007270D01*
X038985Y007270D01*
X039285Y006270D02*
X040285Y007270D01*
X040885Y007270D01*
X040885Y006270D02*
X040285Y006270D01*
X039285Y005270D01*
X038985Y005270D01*
X039485Y004470D02*
X040285Y005270D01*
X040885Y005270D01*
X042135Y004820D02*
X042135Y014620D01*
X041535Y015220D01*
X039835Y015220D01*
X036735Y018320D01*
X026435Y018320D01*
X026385Y018270D01*
X026385Y015642D01*
X026385Y014670D01*
X026935Y014120D01*
X026935Y013004D01*
X027377Y012562D01*
X027385Y011770D02*
X028585Y012970D01*
X028585Y014520D01*
X029585Y014520D02*
X029585Y013470D01*
X028385Y012270D01*
X028385Y011270D01*
X029385Y011270D02*
X029385Y012270D01*
X030635Y013520D01*
X027385Y011770D02*
X027385Y011270D01*
X024385Y011270D02*
X024385Y012670D01*
X025235Y013520D01*
X025235Y013940D01*
X023385Y012670D02*
X022485Y013570D01*
X022485Y013970D01*
X021735Y013720D02*
X021735Y012720D01*
X022385Y012070D01*
X022385Y011270D01*
X023385Y011270D02*
X023385Y012670D01*
X021385Y013661D02*
X021054Y013992D01*
X019207Y013992D01*
X018935Y013720D01*
X018935Y012720D01*
X018435Y012220D01*
X016735Y012220D01*
X015835Y011320D01*
X010335Y011320D01*
X009535Y012120D01*
X003635Y012120D01*
X003185Y012570D01*
X001885Y012570D01*
X002585Y013570D02*
X003735Y012420D01*
X009635Y012420D01*
X010485Y011570D01*
X015685Y011570D01*
X016615Y012500D01*
X018355Y012500D01*
X018665Y012820D01*
X018665Y013890D01*
X019065Y014260D01*
X021196Y014260D01*
X021735Y013720D01*
X021385Y013661D02*
X021385Y011270D01*
X020814Y011700D02*
X020814Y012358D01*
X020814Y013250D01*
X020774Y013290D01*
X019862Y013290D01*
X019862Y013290D01*
X020814Y011700D02*
X020385Y011270D01*
X014435Y013283D02*
X014435Y014956D01*
X014961Y015482D01*
X014731Y015713D01*
X013750Y015713D01*
X015235Y016920D02*
X015961Y016194D01*
X015961Y015482D01*
X016194Y015715D01*
X017229Y015715D01*
X017480Y015715D01*
X018442Y016677D01*
X019685Y017920D01*
X020835Y017920D01*
X020774Y017859D01*
X020774Y015290D01*
X017055Y016920D02*
X017035Y017040D01*
X017035Y017920D01*
X017435Y018320D01*
X026435Y018320D01*
X025835Y017920D02*
X020835Y017920D01*
X015235Y016920D02*
X014055Y016920D01*
X015035Y017920D02*
X011451Y017920D01*
X010267Y016737D01*
X002585Y013570D02*
X001885Y013570D01*
X001885Y011570D02*
X002285Y011570D01*
X027035Y017920D02*
X031035Y017920D01*
X037135Y012820D02*
X037935Y013620D01*
X040235Y013620D01*
X040885Y014270D01*
X037135Y012820D02*
X035535Y012820D01*
X035235Y012520D01*
X035235Y011720D01*
X035685Y011270D01*
X035785Y011270D01*
X038985Y011270D02*
X040885Y011270D01*
X040885Y012270D02*
X038985Y012270D01*
X038985Y010270D02*
X040885Y010270D01*
X035485Y006270D02*
X032935Y009020D01*
X030685Y009020D01*
X030385Y008720D01*
X030385Y008270D01*
X031285Y007050D02*
X032425Y007050D01*
X032435Y007060D01*
X035485Y006270D02*
X035985Y006270D01*
X036285Y006270D01*
X035985Y005270D02*
X035985Y004920D01*
X036435Y004470D01*
X039485Y004470D01*
X040035Y004220D02*
X041735Y004220D01*
X042135Y004820D01*
X040035Y004220D02*
X039535Y003720D01*
X029435Y003720D01*
X028405Y004750D01*
X028385Y004750D01*
X038985Y006270D02*
X039285Y006270D01*
D26*
X027035Y017920D03*
X025835Y017920D03*
D27*
X003399Y003393D02*
X003574Y003010D01*
X009849Y003010D01*
X009809Y003039D01*
X009754Y003094D01*
X009707Y003158D01*
X009672Y003228D01*
X009647Y003303D01*
X009635Y003381D01*
X009635Y003420D01*
X010135Y003420D01*
X010135Y003420D01*
X009635Y003420D01*
X009635Y003460D01*
X009647Y003537D01*
X009672Y003612D01*
X009707Y003682D01*
X009754Y003746D01*
X009809Y003802D01*
X009873Y003848D01*
X009943Y003884D01*
X010018Y003908D01*
X010096Y003920D01*
X010135Y003920D01*
X010135Y003420D01*
X010135Y003420D01*
X010635Y003420D01*
X010635Y003381D01*
X010623Y003303D01*
X010598Y003228D01*
X010563Y003158D01*
X010516Y003094D01*
X010461Y003039D01*
X010421Y003010D01*
X039196Y003010D01*
X039371Y003393D01*
X039371Y003393D01*
X039411Y003440D01*
X029379Y003440D01*
X029277Y003483D01*
X029198Y003562D01*
X028469Y004290D01*
X028195Y004290D01*
X027925Y004560D01*
X027925Y004941D01*
X028195Y005210D01*
X028576Y005210D01*
X028845Y004941D01*
X028845Y004706D01*
X029551Y004000D01*
X039419Y004000D01*
X039798Y004379D01*
X039877Y004458D01*
X039979Y004500D01*
X041585Y004500D01*
X041855Y004905D01*
X041855Y014504D01*
X041419Y014940D01*
X039779Y014940D01*
X039677Y014983D01*
X036619Y018040D01*
X036311Y018040D01*
X036694Y017658D01*
X036772Y017579D01*
X036815Y017476D01*
X036815Y013465D01*
X036772Y013362D01*
X036694Y013283D01*
X036694Y013283D01*
X036511Y013100D01*
X037019Y013100D01*
X037698Y013779D01*
X037777Y013858D01*
X037879Y013900D01*
X040119Y013900D01*
X040184Y013965D01*
X040161Y013987D01*
X040085Y014171D01*
X040085Y014370D01*
X040161Y014553D01*
X040302Y014694D01*
X040486Y014770D01*
X041285Y014770D01*
X041468Y014694D01*
X041609Y014553D01*
X041685Y014370D01*
X041685Y014171D01*
X041609Y013987D01*
X041468Y013846D01*
X041285Y013770D01*
X040781Y013770D01*
X040781Y013770D01*
X041285Y013770D01*
X041468Y013694D01*
X041609Y013553D01*
X041685Y013370D01*
X041685Y013171D01*
X041609Y012987D01*
X041468Y012846D01*
X041285Y012770D01*
X040486Y012770D01*
X040302Y012694D01*
X040161Y012553D01*
X040160Y012550D01*
X039616Y012550D01*
X039506Y012660D01*
X039337Y012730D01*
X038634Y012730D01*
X038465Y012660D01*
X038335Y012531D01*
X038265Y012362D01*
X038265Y012179D01*
X038335Y012010D01*
X038465Y011880D01*
X038634Y011810D01*
X039337Y011810D01*
X039506Y011880D01*
X039616Y011990D01*
X040160Y011990D01*
X040161Y011987D01*
X040302Y011846D01*
X040486Y011770D01*
X040302Y011694D01*
X040161Y011553D01*
X040160Y011550D01*
X039616Y011550D01*
X039506Y011660D01*
X039337Y011730D01*
X038634Y011730D01*
X038465Y011660D01*
X038335Y011531D01*
X038265Y011362D01*
X038265Y011179D01*
X038335Y011010D01*
X038465Y010880D01*
X038634Y010810D01*
X039337Y010810D01*
X039506Y010880D01*
X039616Y010990D01*
X040160Y010990D01*
X040161Y010987D01*
X040302Y010846D01*
X040486Y010770D01*
X041285Y010770D01*
X041468Y010846D01*
X041609Y010987D01*
X041685Y011171D01*
X041685Y011370D01*
X041609Y011553D01*
X041468Y011694D01*
X041285Y011770D01*
X040486Y011770D01*
X041285Y011770D01*
X041468Y011846D01*
X041609Y011987D01*
X041685Y012171D01*
X041685Y012370D01*
X041609Y012553D01*
X041468Y012694D01*
X041285Y012770D01*
X040486Y012770D01*
X040302Y012846D01*
X040198Y012950D01*
X038318Y012950D01*
X037366Y011999D01*
X037249Y011950D01*
X036576Y011950D01*
X036506Y011880D01*
X036337Y011810D01*
X035634Y011810D01*
X035515Y011859D01*
X035515Y011836D01*
X035625Y011727D01*
X035634Y011730D01*
X036337Y011730D01*
X036506Y011660D01*
X036635Y011531D01*
X036705Y011362D01*
X036705Y011179D01*
X036636Y011011D01*
X036644Y011008D01*
X036722Y010929D01*
X036722Y010929D01*
X037072Y010579D01*
X037115Y010476D01*
X037115Y006065D01*
X037072Y005962D01*
X036994Y005883D01*
X036637Y005526D01*
X036705Y005362D01*
X036705Y005179D01*
X036635Y005010D01*
X036506Y004880D01*
X036446Y004855D01*
X036551Y004750D01*
X039369Y004750D01*
X039495Y004876D01*
X039337Y004810D01*
X038634Y004810D01*
X038465Y004880D01*
X038335Y005010D01*
X038265Y005179D01*
X038265Y005362D01*
X038335Y005531D01*
X038465Y005660D01*
X038634Y005730D01*
X039337Y005730D01*
X039345Y005727D01*
X039495Y005876D01*
X039337Y005810D01*
X038634Y005810D01*
X038465Y005880D01*
X038335Y006010D01*
X038265Y006179D01*
X038265Y006362D01*
X038335Y006531D01*
X038465Y006660D01*
X038634Y006730D01*
X039337Y006730D01*
X039345Y006727D01*
X039495Y006876D01*
X039337Y006810D01*
X038634Y006810D01*
X038465Y006880D01*
X038335Y007010D01*
X038265Y007179D01*
X038265Y007362D01*
X038335Y007531D01*
X038465Y007660D01*
X038634Y007730D01*
X039337Y007730D01*
X039345Y007727D01*
X039460Y007841D01*
X039429Y007825D01*
X039358Y007802D01*
X039283Y007790D01*
X038985Y007790D01*
X038985Y008270D01*
X038985Y008270D01*
X038245Y008270D01*
X038245Y008232D01*
X038257Y008158D01*
X038280Y008086D01*
X038315Y008019D01*
X038359Y007958D01*
X038412Y007904D01*
X038474Y007860D01*
X038541Y007825D01*
X038613Y007802D01*
X038687Y007790D01*
X038985Y007790D01*
X038985Y008270D01*
X038985Y008270D01*
X038245Y008270D01*
X038245Y008308D01*
X038257Y008383D01*
X038280Y008454D01*
X038315Y008522D01*
X038359Y008583D01*
X038412Y008636D01*
X038474Y008681D01*
X038541Y008715D01*
X038613Y008738D01*
X038687Y008750D01*
X038985Y008750D01*
X038985Y008270D01*
X038985Y008270D01*
X039725Y008270D01*
X039725Y008232D01*
X039713Y008158D01*
X039690Y008086D01*
X039674Y008056D01*
X040127Y008508D01*
X040146Y008515D01*
X040161Y008553D01*
X040302Y008694D01*
X040486Y008770D01*
X041285Y008770D01*
X041468Y008846D01*
X041609Y008987D01*
X041685Y009171D01*
X041685Y009370D01*
X041609Y009553D01*
X041468Y009694D01*
X041285Y009770D01*
X040486Y009770D01*
X040302Y009694D01*
X040161Y009553D01*
X040160Y009550D01*
X039616Y009550D01*
X039506Y009660D01*
X039337Y009730D01*
X038634Y009730D01*
X038465Y009660D01*
X038335Y009531D01*
X038265Y009362D01*
X038265Y009179D01*
X038335Y009010D01*
X038465Y008880D01*
X038634Y008810D01*
X039337Y008810D01*
X039506Y008880D01*
X039616Y008990D01*
X040160Y008990D01*
X040161Y008987D01*
X040302Y008846D01*
X040486Y008770D01*
X041285Y008770D01*
X041468Y008694D01*
X041609Y008553D01*
X041685Y008370D01*
X041685Y008171D01*
X041609Y007987D01*
X041468Y007846D01*
X041285Y007770D01*
X040486Y007770D01*
X040302Y007846D01*
X040280Y007869D01*
X039705Y007294D01*
X039705Y007179D01*
X039640Y007021D01*
X040127Y007508D01*
X040146Y007515D01*
X040161Y007553D01*
X040302Y007694D01*
X040486Y007770D01*
X041285Y007770D01*
X041468Y007694D01*
X041609Y007553D01*
X041685Y007370D01*
X041685Y007171D01*
X041609Y006987D01*
X041468Y006846D01*
X041285Y006770D01*
X040486Y006770D01*
X040302Y006846D01*
X040280Y006869D01*
X039705Y006294D01*
X039705Y006179D01*
X039640Y006021D01*
X040127Y006508D01*
X040146Y006515D01*
X040161Y006553D01*
X040302Y006694D01*
X040486Y006770D01*
X041285Y006770D01*
X041468Y006694D01*
X041609Y006553D01*
X041685Y006370D01*
X041685Y006171D01*
X041609Y005987D01*
X041468Y005846D01*
X041285Y005770D01*
X040486Y005770D01*
X040302Y005846D01*
X040280Y005869D01*
X039705Y005294D01*
X039705Y005179D01*
X039640Y005021D01*
X040048Y005429D01*
X039840Y005429D01*
X040048Y005429D02*
X040127Y005508D01*
X040146Y005515D01*
X040161Y005553D01*
X040302Y005694D01*
X040486Y005770D01*
X041285Y005770D01*
X041468Y005694D01*
X041609Y005553D01*
X041685Y005370D01*
X041685Y005171D01*
X041609Y004987D01*
X041468Y004846D01*
X041285Y004770D01*
X040486Y004770D01*
X040302Y004846D01*
X040280Y004869D01*
X039644Y004233D01*
X039541Y004190D01*
X036379Y004190D01*
X036277Y004233D01*
X036198Y004312D01*
X035748Y004762D01*
X035728Y004810D01*
X035634Y004810D01*
X035465Y004880D01*
X035335Y005010D01*
X035265Y005179D01*
X035265Y005362D01*
X035314Y005480D01*
X033494Y005480D01*
X033007Y004912D01*
X033002Y004902D01*
X032971Y004870D01*
X032941Y004836D01*
X032932Y004831D01*
X032924Y004823D01*
X032882Y004806D01*
X032842Y004785D01*
X032831Y004784D01*
X032821Y004780D01*
X032806Y004780D01*
X032626Y004600D01*
X032245Y004600D01*
X031975Y004870D01*
X031975Y005251D01*
X032245Y005520D01*
X032626Y005520D01*
X032714Y005431D01*
X033124Y005909D01*
X033128Y005919D01*
X033160Y005951D01*
X033189Y005985D01*
X033199Y005990D01*
X033207Y005998D01*
X033248Y006015D01*
X033288Y006035D01*
X033299Y006036D01*
X033309Y006040D01*
X033354Y006040D01*
X033399Y006044D01*
X033410Y006040D01*
X035317Y006040D01*
X035283Y006076D01*
X035248Y006112D01*
X035246Y006117D01*
X032813Y008740D01*
X032796Y008740D01*
X032845Y008622D01*
X032845Y007919D01*
X032775Y007750D01*
X032715Y007690D01*
X032715Y007431D01*
X032895Y007251D01*
X032895Y006870D01*
X032715Y006690D01*
X032715Y006165D01*
X032672Y006062D01*
X032594Y005983D01*
X031785Y005174D01*
X031785Y004421D01*
X031709Y004237D01*
X031568Y004096D01*
X031385Y004020D01*
X031186Y004020D01*
X031002Y004096D01*
X030861Y004237D01*
X030793Y004402D01*
X030792Y004398D01*
X030767Y004321D01*
X030730Y004248D01*
X030682Y004181D01*
X030624Y004124D01*
X030558Y004075D01*
X030485Y004038D01*
X030407Y004013D01*
X030326Y004000D01*
X030285Y004000D01*
X030285Y004820D01*
X030285Y004820D01*
X029765Y004820D01*
X029765Y004479D01*
X029778Y004398D01*
X029803Y004321D01*
X029840Y004248D01*
X029888Y004181D01*
X029946Y004124D01*
X030013Y004075D01*
X030086Y004038D01*
X030163Y004013D01*
X030244Y004000D01*
X030285Y004000D01*
X030285Y004820D01*
X030285Y004820D01*
X029765Y004820D01*
X029765Y005161D01*
X029778Y005242D01*
X029803Y005320D01*
X029840Y005393D01*
X029888Y005459D01*
X029946Y005517D01*
X030013Y005565D01*
X030023Y005570D01*
X029966Y005570D01*
X029685Y005851D01*
X029685Y006050D01*
X030165Y006050D01*
X030165Y006050D01*
X029685Y006050D01*
X029685Y006249D01*
X029966Y006530D01*
X030165Y006530D01*
X030165Y006050D01*
X030165Y006050D01*
X030645Y006050D01*
X030645Y005851D01*
X030418Y005624D01*
X030485Y005602D01*
X030558Y005565D01*
X030624Y005517D01*
X030682Y005459D01*
X030730Y005393D01*
X030767Y005320D01*
X030792Y005242D01*
X030793Y005238D01*
X030861Y005403D01*
X031002Y005544D01*
X031080Y005576D01*
X030805Y005851D01*
X030805Y006050D01*
X031285Y006050D01*
X031285Y006050D01*
X030805Y006050D01*
X030805Y006249D01*
X031086Y006530D01*
X031285Y006530D01*
X031285Y006050D01*
X031285Y006050D01*
X031765Y006050D01*
X031765Y005946D01*
X032155Y006336D01*
X032155Y006690D01*
X032075Y006770D01*
X031656Y006770D01*
X031476Y006590D01*
X031095Y006590D01*
X030825Y006860D01*
X030625Y006860D01*
X030625Y007114D01*
X031129Y007618D01*
X031294Y007550D01*
X031477Y007550D01*
X031646Y007620D01*
X031775Y007750D01*
X031845Y007919D01*
X031845Y008622D01*
X031796Y008740D01*
X031974Y008740D01*
X031925Y008622D01*
X031925Y007919D01*
X031995Y007750D01*
X032125Y007620D01*
X032155Y007608D01*
X032155Y007431D01*
X032055Y007330D01*
X031656Y007330D01*
X031476Y007510D01*
X031095Y007510D01*
X030825Y007241D01*
X030825Y006860D01*
X030625Y006860D02*
X030356Y006590D01*
X029975Y006590D01*
X029795Y006770D01*
X028181Y006770D01*
X027515Y006104D01*
X027515Y004265D01*
X027472Y004162D01*
X027394Y004083D01*
X027394Y004083D01*
X026671Y003360D01*
X026568Y003317D01*
X018672Y003317D01*
X018492Y003137D01*
X018111Y003137D01*
X017842Y003407D01*
X017842Y003788D01*
X018022Y003968D01*
X018022Y004039D01*
X017842Y004219D01*
X017842Y004259D01*
X017656Y004073D01*
X017582Y004000D01*
X017487Y003960D01*
X016683Y003960D01*
X016588Y004000D01*
X016579Y004008D01*
X016574Y004003D01*
X016782Y003796D01*
X016782Y003597D01*
X016302Y003597D01*
X016302Y003597D01*
X016302Y003117D01*
X016500Y003117D01*
X016782Y003398D01*
X016782Y003597D01*
X016302Y003597D01*
X016302Y003597D01*
X016302Y003117D01*
X016103Y003117D01*
X015822Y003398D01*
X015822Y003597D01*
X016302Y003597D01*
X016302Y003597D01*
X015822Y003597D01*
X015822Y003796D01*
X016029Y004003D01*
X015871Y004161D01*
X015851Y004209D01*
X015842Y004219D01*
X015842Y004232D01*
X015798Y004338D01*
X015798Y004528D01*
X015827Y004600D01*
X009795Y004600D01*
X009795Y003969D01*
X009756Y003873D01*
X009682Y003800D01*
X009382Y003500D01*
X009287Y003460D01*
X008483Y003460D01*
X008388Y003500D01*
X008315Y003573D01*
X008015Y003873D01*
X007975Y003969D01*
X007975Y004600D01*
X005510Y004600D01*
X005510Y004400D01*
X004865Y004400D01*
X004865Y004400D01*
X004865Y003755D01*
X004598Y003755D01*
X004220Y004133D01*
X004220Y004400D01*
X004865Y004400D01*
X004865Y004400D01*
X004865Y003755D01*
X005132Y003755D01*
X005510Y004133D01*
X005510Y004400D01*
X004865Y004400D01*
X004220Y004400D01*
X004220Y004667D01*
X004598Y005045D01*
X004671Y005045D01*
X002575Y007225D01*
X002524Y007174D01*
X002458Y007125D01*
X002385Y007088D01*
X002307Y007063D01*
X002226Y007050D01*
X001885Y007050D01*
X001885Y007570D01*
X001885Y007570D01*
X001065Y007570D01*
X001065Y007529D01*
X001078Y007448D01*
X001103Y007371D01*
X001140Y007298D01*
X001188Y007231D01*
X001246Y007174D01*
X001313Y007125D01*
X001386Y007088D01*
X001463Y007063D01*
X001544Y007050D01*
X001885Y007050D01*
X001885Y007570D01*
X001885Y007570D01*
X001065Y007570D01*
X001065Y007611D01*
X001078Y007692D01*
X001103Y007770D01*
X001140Y007843D01*
X001188Y007909D01*
X001246Y007967D01*
X001313Y008015D01*
X001386Y008052D01*
X001463Y008077D01*
X001467Y008078D01*
X001302Y008146D01*
X001161Y008287D01*
X001085Y008471D01*
X001085Y008670D01*
X001161Y008853D01*
X001302Y008994D01*
X001486Y009070D01*
X002285Y009070D01*
X002331Y009051D01*
X002389Y009050D01*
X002398Y009050D01*
X002352Y009098D01*
X002285Y009070D01*
X001486Y009070D01*
X001302Y009146D01*
X001161Y009287D01*
X001085Y009471D01*
X001085Y009670D01*
X001161Y009853D01*
X001302Y009994D01*
X001486Y010070D01*
X002285Y010070D01*
X002468Y009994D01*
X002555Y009907D01*
X002555Y010104D01*
X002491Y010169D01*
X002468Y010146D01*
X002285Y010070D01*
X001486Y010070D01*
X001302Y010146D01*
X001161Y010287D01*
X001085Y010471D01*
X001085Y010670D01*
X001161Y010853D01*
X001302Y010994D01*
X001486Y011070D01*
X002285Y011070D01*
X002463Y010996D01*
X002359Y011101D01*
X002285Y011070D01*
X001486Y011070D01*
X001302Y011146D01*
X001161Y011287D01*
X001085Y011471D01*
X001085Y011670D01*
X001161Y011853D01*
X001302Y011994D01*
X001486Y012070D01*
X002285Y012070D01*
X002468Y012146D01*
X002609Y012287D01*
X002610Y012290D01*
X003069Y012290D01*
X003398Y011962D01*
X003477Y011883D01*
X003579Y011840D01*
X009419Y011840D01*
X010176Y011083D01*
X010039Y011120D01*
X009552Y011120D01*
X009081Y010994D01*
X008659Y010751D01*
X008315Y010406D01*
X008071Y009984D01*
X007945Y009514D01*
X007945Y009027D01*
X008071Y008556D01*
X008315Y008134D01*
X008659Y007790D01*
X009081Y007546D01*
X009552Y007420D01*
X010039Y007420D01*
X010509Y007546D01*
X010931Y007790D01*
X011275Y008134D01*
X011519Y008556D01*
X011645Y009027D01*
X011645Y009514D01*
X011519Y009984D01*
X011275Y010406D01*
X010931Y010751D01*
X010509Y010994D01*
X010337Y011040D01*
X015891Y011040D01*
X015994Y011083D01*
X016575Y011664D01*
X016575Y011262D01*
X016572Y011252D01*
X016575Y011210D01*
X016575Y011169D01*
X016579Y011159D01*
X016580Y011149D01*
X016599Y011111D01*
X016615Y011073D01*
X016622Y011066D01*
X016627Y011056D01*
X016658Y011029D01*
X016688Y011000D01*
X016697Y010996D01*
X016902Y010820D01*
X016695Y010820D01*
X016322Y010820D01*
X016236Y010807D01*
X016154Y010780D01*
X016077Y010741D01*
X016007Y010690D01*
X015946Y010629D01*
X015895Y010558D01*
X015855Y010481D01*
X015829Y010399D01*
X015815Y010314D01*
X015815Y010270D01*
X015815Y010227D01*
X015829Y010141D01*
X015855Y010059D01*
X015895Y009982D01*
X015946Y009912D01*
X016007Y009851D01*
X016077Y009800D01*
X016154Y009761D01*
X016160Y009759D01*
X016065Y009720D01*
X015916Y009570D01*
X015835Y009376D01*
X015835Y009165D01*
X015916Y008970D01*
X016065Y008821D01*
X016187Y008770D01*
X016065Y008720D01*
X015916Y008570D01*
X015835Y008376D01*
X015835Y008165D01*
X015916Y007970D01*
X016065Y007821D01*
X016260Y007740D01*
X019005Y007740D01*
X019125Y007620D01*
X019294Y007550D01*
X019477Y007550D01*
X019646Y007620D01*
X019775Y007750D01*
X019845Y007919D01*
X019845Y007996D01*
X019915Y008165D01*
X019915Y008376D01*
X019845Y008545D01*
X019845Y008622D01*
X019775Y008791D01*
X019646Y008920D01*
X019477Y008990D01*
X019294Y008990D01*
X019125Y008920D01*
X019005Y008800D01*
X018895Y008800D01*
X018895Y011272D01*
X018856Y011368D01*
X018782Y011441D01*
X018295Y011928D01*
X018295Y011940D01*
X018491Y011940D01*
X018594Y011983D01*
X019094Y012483D01*
X019172Y012562D01*
X019215Y012665D01*
X019215Y013604D01*
X019323Y013712D01*
X019633Y013712D01*
X019402Y013481D01*
X019402Y013099D01*
X019663Y012838D01*
X019616Y012838D01*
X019334Y012557D01*
X019334Y012358D01*
X019334Y012159D01*
X019523Y011971D01*
X019477Y011990D01*
X019294Y011990D01*
X019125Y011920D01*
X018995Y011791D01*
X018925Y011622D01*
X018925Y010919D01*
X018995Y010750D01*
X019125Y010620D01*
X019294Y010550D01*
X019477Y010550D01*
X019646Y010620D01*
X019775Y010750D01*
X019845Y010919D01*
X019845Y011622D01*
X019775Y011791D01*
X019688Y011878D01*
X019814Y011878D01*
X019814Y012358D01*
X019334Y012358D01*
X019814Y012358D01*
X019814Y012358D01*
X019814Y012358D01*
X019814Y011878D01*
X020013Y011878D01*
X020294Y012159D01*
X020294Y012358D01*
X019815Y012358D01*
X019815Y012358D01*
X020294Y012358D01*
X020294Y012557D01*
X020021Y012830D01*
X020052Y012830D01*
X020232Y013010D01*
X020404Y013010D01*
X020534Y012879D01*
X020534Y012729D01*
X020354Y012549D01*
X020354Y012168D01*
X020534Y011988D01*
X020534Y011966D01*
X020477Y011990D01*
X020294Y011990D01*
X020125Y011920D01*
X019995Y011791D01*
X019925Y011622D01*
X019925Y010919D01*
X019995Y010750D01*
X020125Y010620D01*
X020294Y010550D01*
X020477Y010550D01*
X020646Y010620D01*
X020775Y010750D01*
X020845Y010919D01*
X020845Y011334D01*
X020925Y011414D01*
X020925Y010919D01*
X020995Y010750D01*
X021125Y010620D01*
X021294Y010550D01*
X021477Y010550D01*
X021646Y010620D01*
X021775Y010750D01*
X021845Y010919D01*
X021845Y011622D01*
X021775Y011791D01*
X021665Y011901D01*
X021665Y012394D01*
X022105Y011954D01*
X022105Y011901D01*
X021995Y011791D01*
X021925Y011622D01*
X021925Y010919D01*
X021995Y010750D01*
X022125Y010620D01*
X022294Y010550D01*
X022477Y010550D01*
X022646Y010620D01*
X022775Y010750D01*
X022845Y010919D01*
X022845Y011622D01*
X022775Y011791D01*
X022665Y011901D01*
X022665Y012126D01*
X022622Y012229D01*
X022015Y012836D01*
X022015Y013776D01*
X021972Y013879D01*
X021894Y013958D01*
X021894Y013958D01*
X021433Y014418D01*
X021433Y014418D01*
X021354Y014497D01*
X021251Y014540D01*
X019070Y014540D01*
X019020Y014542D01*
X019014Y014540D01*
X019009Y014540D01*
X018962Y014520D01*
X018915Y014503D01*
X018911Y014499D01*
X018906Y014497D01*
X018870Y014461D01*
X018512Y014130D01*
X018507Y014128D01*
X018471Y014092D01*
X018434Y014058D01*
X018432Y014053D01*
X018428Y014049D01*
X018409Y014002D01*
X018388Y013957D01*
X018387Y013951D01*
X018385Y013946D01*
X018385Y013896D01*
X018383Y013845D01*
X018385Y013840D01*
X018385Y012934D01*
X018237Y012780D01*
X017927Y012780D01*
X017968Y012821D01*
X018059Y013040D01*
X018059Y013276D01*
X017968Y013494D01*
X017801Y013661D01*
X017583Y013751D01*
X017464Y013751D01*
X017435Y013763D01*
X014715Y013763D01*
X014715Y014840D01*
X014897Y015022D01*
X015072Y015022D01*
X014981Y014931D01*
X014981Y014732D01*
X014981Y014533D01*
X015262Y014252D01*
X015461Y014252D01*
X015461Y014732D01*
X015461Y014252D01*
X015660Y014252D01*
X015941Y014533D01*
X015941Y014732D01*
X015461Y014732D01*
X015461Y014732D01*
X015461Y014732D01*
X014981Y014732D01*
X015461Y014732D01*
X015461Y014732D01*
X015941Y014732D01*
X015941Y014931D01*
X015850Y015022D01*
X016152Y015022D01*
X016421Y015292D01*
X016421Y015435D01*
X016858Y015435D01*
X017038Y015255D01*
X017420Y015255D01*
X017689Y015525D01*
X017689Y015528D01*
X018328Y016167D01*
X018339Y016162D01*
X018544Y016162D01*
X018734Y016241D01*
X018878Y016385D01*
X018907Y016455D01*
X019220Y016142D01*
X019442Y016142D01*
X019663Y016142D01*
X019977Y016456D01*
X019977Y016677D01*
X019442Y016677D01*
X019442Y016677D01*
X019442Y016142D01*
X019442Y016677D01*
X019442Y016677D01*
X019977Y016677D01*
X019977Y016899D01*
X019663Y017212D01*
X019442Y017212D01*
X019442Y016677D01*
X019442Y016677D01*
X019442Y017212D01*
X019373Y017212D01*
X019801Y017640D01*
X020494Y017640D01*
X020494Y015661D01*
X020332Y015499D01*
X020061Y015770D01*
X019862Y015770D01*
X019862Y015290D01*
X019862Y014810D01*
X020061Y014810D01*
X020332Y015081D01*
X020584Y014830D01*
X020965Y014830D01*
X021234Y015099D01*
X021234Y015481D01*
X021054Y015661D01*
X021054Y017640D01*
X025437Y017640D01*
X025437Y017639D01*
X025554Y017522D01*
X026105Y017522D01*
X026105Y016013D01*
X025925Y015833D01*
X025925Y015452D01*
X026105Y015272D01*
X026105Y014614D01*
X026148Y014512D01*
X026557Y014102D01*
X026195Y014102D01*
X025925Y013833D01*
X025925Y013452D01*
X026065Y013312D01*
X026065Y012901D01*
X025925Y012761D01*
X025925Y012380D01*
X026065Y012240D01*
X026065Y011861D01*
X025995Y011791D01*
X025925Y011622D01*
X025925Y010919D01*
X025995Y010750D01*
X026125Y010620D01*
X026294Y010550D01*
X026477Y010550D01*
X026646Y010620D01*
X026775Y010750D01*
X026845Y010919D01*
X026845Y011622D01*
X026775Y011791D01*
X026705Y011861D01*
X026705Y012240D01*
X026845Y012380D01*
X026845Y012698D01*
X026917Y012626D01*
X026917Y012371D01*
X027187Y012102D01*
X027321Y012102D01*
X027227Y012008D01*
X027149Y011930D01*
X027125Y011920D01*
X026995Y011791D01*
X026925Y011622D01*
X026925Y010919D01*
X026995Y010750D01*
X027125Y010620D01*
X027294Y010550D01*
X027477Y010550D01*
X027646Y010620D01*
X027775Y010750D01*
X027845Y010919D01*
X027845Y011622D01*
X027783Y011772D01*
X028105Y012094D01*
X028105Y011901D01*
X027995Y011791D01*
X027925Y011622D01*
X027925Y010919D01*
X027995Y010750D01*
X028125Y010620D01*
X028294Y010550D01*
X028477Y010550D01*
X028646Y010620D01*
X028775Y010750D01*
X028845Y010919D01*
X028845Y011622D01*
X028775Y011791D01*
X028665Y011901D01*
X028665Y012154D01*
X029822Y013312D01*
X029865Y013415D01*
X029865Y013795D01*
X029868Y013796D01*
X030009Y013937D01*
X030085Y014121D01*
X030085Y014920D01*
X030009Y015103D01*
X029868Y015244D01*
X029685Y015320D01*
X029486Y015320D01*
X029302Y015244D01*
X029161Y015103D01*
X029085Y014920D01*
X029009Y015103D01*
X028868Y015244D01*
X028685Y015320D01*
X028486Y015320D01*
X028302Y015244D01*
X028161Y015103D01*
X028093Y014938D01*
X028092Y014942D01*
X028067Y015020D01*
X028030Y015093D01*
X027982Y015159D01*
X027924Y015217D01*
X027858Y015265D01*
X027785Y015302D01*
X027707Y015327D01*
X027626Y015340D01*
X027585Y015340D01*
X027544Y015340D01*
X027463Y015327D01*
X027386Y015302D01*
X027313Y015265D01*
X027246Y015217D01*
X027188Y015159D01*
X027140Y015093D01*
X027103Y015020D01*
X027078Y014942D01*
X027065Y014861D01*
X027065Y014520D01*
X027065Y014386D01*
X026665Y014786D01*
X026665Y015272D01*
X026845Y015452D01*
X026845Y015833D01*
X026665Y016013D01*
X026665Y017611D01*
X026754Y017522D01*
X027316Y017522D01*
X027433Y017639D01*
X027433Y017640D01*
X030919Y017640D01*
X031355Y017204D01*
X031355Y015245D01*
X031352Y015244D01*
X031211Y015103D01*
X031135Y014920D01*
X031059Y015103D01*
X030918Y015244D01*
X030735Y015320D01*
X030536Y015320D01*
X030352Y015244D01*
X030211Y015103D01*
X030135Y014920D01*
X030135Y014121D01*
X030211Y013937D01*
X030352Y013796D01*
X030355Y013795D01*
X030355Y013636D01*
X029148Y012429D01*
X029105Y012326D01*
X029105Y011901D01*
X028995Y011791D01*
X028925Y011622D01*
X028925Y010919D01*
X028995Y010750D01*
X029125Y010620D01*
X029294Y010550D01*
X029477Y010550D01*
X029646Y010620D01*
X029775Y010750D01*
X029845Y010919D01*
X029845Y011622D01*
X029775Y011791D01*
X029665Y011901D01*
X029665Y012154D01*
X030794Y013283D01*
X030872Y013362D01*
X030915Y013465D01*
X030915Y013795D01*
X030918Y013796D01*
X031059Y013937D01*
X031135Y014121D01*
X031135Y014920D01*
X031135Y014121D01*
X031211Y013937D01*
X031352Y013796D01*
X031536Y013720D01*
X031626Y013720D01*
X030231Y012409D01*
X030227Y012408D01*
X030190Y012371D01*
X030153Y012336D01*
X030151Y012332D01*
X030148Y012329D01*
X030128Y012281D01*
X030107Y012235D01*
X030107Y012230D01*
X030105Y012226D01*
X030105Y012175D01*
X030104Y012123D01*
X030105Y012119D01*
X030105Y011901D01*
X029995Y011791D01*
X029925Y011622D01*
X029925Y010919D01*
X029995Y010750D01*
X030125Y010620D01*
X030294Y010550D01*
X030477Y010550D01*
X030646Y010620D01*
X030775Y010750D01*
X030845Y010919D01*
X030845Y011622D01*
X030775Y011791D01*
X030665Y011901D01*
X030665Y012049D01*
X031105Y012462D01*
X031105Y011901D01*
X030995Y011791D01*
X030925Y011622D01*
X030925Y010919D01*
X030995Y010750D01*
X031125Y010620D01*
X031294Y010550D01*
X031477Y010550D01*
X031646Y010620D01*
X031775Y010750D01*
X031845Y010919D01*
X031845Y011622D01*
X031775Y011791D01*
X031665Y011901D01*
X031665Y012554D01*
X032251Y013140D01*
X034091Y013140D01*
X034194Y013183D01*
X034731Y013720D01*
X034735Y013720D01*
X034918Y013796D01*
X035059Y013937D01*
X035127Y014102D01*
X035128Y014098D01*
X035153Y014021D01*
X035190Y013948D01*
X035238Y013881D01*
X035296Y013824D01*
X035363Y013775D01*
X035436Y013738D01*
X035513Y013713D01*
X035594Y013700D01*
X035635Y013700D01*
X035635Y014520D01*
X035635Y014520D01*
X035635Y013700D01*
X035676Y013700D01*
X035757Y013713D01*
X035835Y013738D01*
X035908Y013775D01*
X035974Y013824D01*
X036032Y013881D01*
X036080Y013948D01*
X036117Y014021D01*
X036142Y014098D01*
X036155Y014179D01*
X036155Y014520D01*
X035635Y014520D01*
X035635Y014520D01*
X035635Y015340D01*
X035594Y015340D01*
X035513Y015327D01*
X035436Y015302D01*
X035363Y015265D01*
X035296Y015217D01*
X035238Y015159D01*
X035190Y015093D01*
X035153Y015020D01*
X035128Y014942D01*
X035127Y014938D01*
X035059Y015103D01*
X034918Y015244D01*
X034735Y015320D01*
X034536Y015320D01*
X034352Y015244D01*
X034211Y015103D01*
X034135Y014920D01*
X034059Y015103D01*
X033918Y015244D01*
X033735Y015320D01*
X033536Y015320D01*
X033352Y015244D01*
X033211Y015103D01*
X033143Y014938D01*
X033142Y014942D01*
X033117Y015020D01*
X033080Y015093D01*
X033032Y015159D01*
X032974Y015217D01*
X032908Y015265D01*
X032835Y015302D01*
X032757Y015327D01*
X032676Y015340D01*
X032635Y015340D01*
X032594Y015340D01*
X032513Y015327D01*
X032436Y015302D01*
X032363Y015265D01*
X032296Y015217D01*
X032238Y015159D01*
X032190Y015093D01*
X032153Y015020D01*
X032128Y014942D01*
X032127Y014938D01*
X032059Y015103D01*
X031918Y015244D01*
X031915Y015245D01*
X031915Y017376D01*
X031872Y017479D01*
X031711Y017640D01*
X035919Y017640D01*
X036255Y017304D01*
X036255Y013636D01*
X036019Y013400D01*
X035379Y013400D01*
X035277Y013358D01*
X034698Y012779D01*
X034655Y012676D01*
X034655Y011365D01*
X034698Y011262D01*
X034777Y011183D01*
X035348Y010612D01*
X035382Y010578D01*
X035337Y010533D01*
X035277Y010508D01*
X035198Y010429D01*
X035198Y010429D01*
X035155Y010386D01*
X035155Y010470D01*
X034675Y010470D01*
X034195Y010470D01*
X034195Y010271D01*
X034296Y010170D01*
X032181Y010170D01*
X032621Y010610D01*
X032646Y010620D01*
X032775Y010750D01*
X032845Y010919D01*
X032845Y010990D01*
X033256Y010990D01*
X033292Y011005D01*
X033585Y011005D01*
X033855Y011275D01*
X033855Y011656D01*
X033585Y011925D01*
X033204Y011925D01*
X032935Y011656D01*
X032935Y011550D01*
X032845Y011550D01*
X032845Y011622D01*
X032775Y011791D01*
X032665Y011901D01*
X032665Y012199D01*
X032837Y012371D01*
X032837Y012752D01*
X032568Y013022D01*
X032187Y013022D01*
X031917Y012752D01*
X031917Y012371D01*
X032105Y012183D01*
X032105Y011901D01*
X031995Y011791D01*
X031925Y011622D01*
X031925Y010919D01*
X031987Y010768D01*
X031659Y010440D01*
X028269Y010440D01*
X028167Y010398D01*
X026787Y009018D01*
X026708Y008939D01*
X026692Y008901D01*
X026637Y008941D01*
X026569Y008975D01*
X026498Y008998D01*
X026423Y009010D01*
X026385Y009010D01*
X026347Y009010D01*
X026273Y008998D01*
X026201Y008975D01*
X026134Y008941D01*
X026072Y008896D01*
X026019Y008843D01*
X025975Y008782D01*
X025940Y008714D01*
X025917Y008643D01*
X025905Y008568D01*
X025905Y008270D01*
X025905Y007972D01*
X025917Y007898D01*
X025940Y007826D01*
X025975Y007759D01*
X026019Y007698D01*
X026072Y007644D01*
X026134Y007600D01*
X026201Y007565D01*
X026248Y007550D01*
X026186Y007550D01*
X025905Y007269D01*
X025905Y007070D01*
X025905Y006871D01*
X026186Y006590D01*
X026385Y006590D01*
X026385Y007070D01*
X026385Y007070D01*
X025905Y007070D01*
X026385Y007070D01*
X026385Y007070D01*
X026385Y006590D01*
X026584Y006590D01*
X026665Y006671D01*
X026665Y006319D01*
X026584Y006400D01*
X026385Y006400D01*
X026186Y006400D01*
X025905Y006119D01*
X025905Y005920D01*
X025905Y005721D01*
X026186Y005440D01*
X026385Y005440D01*
X026385Y005920D01*
X026385Y005920D01*
X025905Y005920D01*
X026385Y005920D01*
X026385Y005920D01*
X026385Y005440D01*
X026584Y005440D01*
X026665Y005521D01*
X026665Y004536D01*
X026319Y004190D01*
X021564Y004190D01*
X021505Y004244D01*
X021505Y004543D01*
X021528Y004520D01*
X021942Y004520D01*
X022221Y004799D01*
X022520Y004500D01*
X022735Y004500D01*
X022735Y005020D01*
X022735Y005020D01*
X022735Y004500D01*
X022951Y004500D01*
X023249Y004799D01*
X023528Y004520D01*
X023942Y004520D01*
X024235Y004813D01*
X024235Y005227D01*
X023942Y005520D01*
X023528Y005520D01*
X023249Y005241D01*
X022956Y005534D01*
X023235Y005813D01*
X023235Y006227D01*
X023235Y005813D01*
X023528Y005520D01*
X023942Y005520D01*
X024235Y005813D01*
X024235Y006227D01*
X024165Y006297D01*
X024165Y006688D01*
X024204Y006649D01*
X024925Y005928D01*
X024925Y005730D01*
X025065Y005590D01*
X025065Y005081D01*
X024925Y004941D01*
X024925Y004560D01*
X025195Y004290D01*
X025576Y004290D01*
X025845Y004560D01*
X025845Y004941D01*
X025705Y005081D01*
X025705Y005590D01*
X025845Y005730D01*
X025845Y006111D01*
X025576Y006380D01*
X025378Y006380D01*
X024705Y007053D01*
X024705Y007680D01*
X024775Y007750D01*
X024845Y007919D01*
X024845Y008622D01*
X024775Y008791D01*
X024646Y008920D01*
X024477Y008990D01*
X024294Y008990D01*
X024144Y008928D01*
X024122Y008979D01*
X024044Y009058D01*
X023822Y009279D01*
X023744Y009358D01*
X023641Y009400D01*
X021579Y009400D01*
X021477Y009358D01*
X021227Y009108D01*
X021148Y009029D01*
X021105Y008926D01*
X021105Y008901D01*
X020995Y008791D01*
X020925Y008622D01*
X020925Y007919D01*
X020995Y007750D01*
X021082Y007663D01*
X020519Y007100D01*
X020311Y007100D01*
X020544Y007333D01*
X020622Y007412D01*
X020665Y007515D01*
X020665Y007640D01*
X020775Y007750D01*
X020845Y007919D01*
X020845Y008622D01*
X020775Y008791D01*
X020646Y008920D01*
X020477Y008990D01*
X020294Y008990D01*
X020125Y008920D01*
X019995Y008791D01*
X019925Y008622D01*
X019925Y007919D01*
X019995Y007750D01*
X020082Y007663D01*
X019819Y007400D01*
X006821Y007400D01*
X006025Y008196D01*
X006160Y008331D01*
X006160Y008849D01*
X005794Y009215D01*
X005276Y009215D01*
X004910Y008849D01*
X004910Y008331D01*
X005276Y007965D01*
X005464Y007965D01*
X006329Y007100D01*
X005851Y007100D01*
X005537Y007415D01*
X004174Y008874D01*
X004172Y008879D01*
X004137Y008915D01*
X004102Y008952D01*
X004097Y008954D01*
X003415Y009636D01*
X003415Y010776D01*
X003372Y010879D01*
X002685Y011566D01*
X002685Y011670D01*
X002609Y011853D01*
X002468Y011994D01*
X002285Y012070D01*
X001486Y012070D01*
X001302Y012146D01*
X001161Y012287D01*
X001085Y012471D01*
X001085Y012670D01*
X001161Y012853D01*
X001302Y012994D01*
X001486Y013070D01*
X002285Y013070D01*
X002468Y012994D01*
X002609Y012853D01*
X002610Y012850D01*
X002909Y012850D01*
X002541Y013219D01*
X002468Y013146D01*
X002285Y013070D01*
X001486Y013070D01*
X001302Y013146D01*
X001161Y013287D01*
X001085Y013471D01*
X001085Y013670D01*
X001161Y013853D01*
X001302Y013994D01*
X001486Y014070D01*
X002285Y014070D01*
X002468Y013994D01*
X002609Y013853D01*
X002610Y013850D01*
X002641Y013850D01*
X002744Y013808D01*
X003851Y012700D01*
X009691Y012700D01*
X009794Y012658D01*
X009872Y012579D01*
X010601Y011850D01*
X014111Y011850D01*
X013900Y012062D01*
X013900Y012283D01*
X014435Y012283D01*
X014435Y012283D01*
X014970Y012283D01*
X014970Y012062D01*
X014758Y011850D01*
X015569Y011850D01*
X016457Y012738D01*
X016559Y012780D01*
X017003Y012780D01*
X016980Y012803D01*
X014671Y012803D01*
X014970Y012505D01*
X014970Y012283D01*
X014435Y012283D01*
X014435Y012283D01*
X013900Y012283D01*
X013900Y012505D01*
X014198Y012803D01*
X005713Y012803D01*
X005465Y012906D01*
X005123Y012906D01*
X004905Y012996D01*
X004738Y013163D01*
X004648Y013382D01*
X004648Y013618D01*
X004738Y013836D01*
X004905Y014003D01*
X005123Y014093D01*
X006147Y014093D01*
X006365Y014003D01*
X006532Y013836D01*
X006562Y013763D01*
X014155Y013763D01*
X014155Y014438D01*
X013949Y014233D01*
X013750Y014233D01*
X013750Y014713D01*
X013750Y015193D01*
X013551Y015193D01*
X013270Y014911D01*
X013270Y014713D01*
X013750Y014713D01*
X013750Y014713D01*
X013750Y014713D01*
X013750Y015193D01*
X013949Y015193D01*
X014155Y014987D01*
X014155Y015012D01*
X014197Y015114D01*
X014501Y015418D01*
X014501Y015433D01*
X014121Y015433D01*
X013941Y015253D01*
X013560Y015253D01*
X013290Y015522D01*
X013290Y015903D01*
X013560Y016173D01*
X013941Y016173D01*
X014121Y015993D01*
X014786Y015993D01*
X014889Y015950D01*
X014897Y015942D01*
X015152Y015942D01*
X015421Y015673D01*
X015421Y015292D01*
X015342Y015212D01*
X015461Y015212D01*
X015461Y014732D01*
X015461Y014732D01*
X015461Y015212D01*
X015580Y015212D01*
X015501Y015292D01*
X015501Y015673D01*
X015681Y015853D01*
X015681Y016078D01*
X015119Y016640D01*
X014686Y016640D01*
X014576Y016530D01*
X014407Y016460D01*
X013704Y016460D01*
X013535Y016530D01*
X013405Y016660D01*
X013335Y016829D01*
X013335Y017012D01*
X013405Y017181D01*
X013535Y017310D01*
X013704Y017380D01*
X014407Y017380D01*
X014576Y017310D01*
X014686Y017200D01*
X015291Y017200D01*
X015394Y017158D01*
X015472Y017079D01*
X016198Y016353D01*
X016241Y016250D01*
X016241Y015995D01*
X016858Y015995D01*
X017038Y016175D01*
X017420Y016175D01*
X017482Y016113D01*
X017932Y016563D01*
X017927Y016575D01*
X017927Y016780D01*
X018005Y016969D01*
X018150Y017114D01*
X018339Y017192D01*
X018544Y017192D01*
X018556Y017187D01*
X019409Y018040D01*
X017551Y018040D01*
X017495Y017984D01*
X017495Y017730D01*
X017315Y017550D01*
X017315Y017380D01*
X017407Y017380D01*
X017576Y017310D01*
X017705Y017181D01*
X017775Y017012D01*
X017775Y016829D01*
X017705Y016660D01*
X017576Y016530D01*
X017407Y016460D01*
X016704Y016460D01*
X016535Y016530D01*
X016405Y016660D01*
X016335Y016829D01*
X016335Y017012D01*
X016405Y017181D01*
X016535Y017310D01*
X016704Y017380D01*
X016755Y017380D01*
X016755Y017550D01*
X016575Y017730D01*
X016575Y018111D01*
X016845Y018380D01*
X017099Y018380D01*
X017126Y018407D01*
X003128Y018407D01*
X003399Y018093D01*
X003399Y018093D01*
X003612Y017627D01*
X003612Y017627D01*
X003685Y017120D01*
X003612Y016613D01*
X003612Y016613D01*
X003399Y016147D01*
X003399Y016147D01*
X003064Y015760D01*
X003064Y015760D01*
X003064Y015760D01*
X002633Y015483D01*
X002633Y015483D01*
X002141Y015339D01*
X001629Y015339D01*
X001629Y015339D01*
X001137Y015483D01*
X000706Y015760D01*
X000705Y015762D01*
X000780Y003828D01*
X001137Y004058D01*
X001137Y004058D01*
X001629Y004202D01*
X002141Y004202D01*
X002633Y004058D01*
X002633Y004058D01*
X003064Y003781D01*
X003064Y003781D01*
X003399Y003393D01*
X003399Y003393D01*
X003450Y003283D02*
X009654Y003283D01*
X009645Y003521D02*
X009404Y003521D01*
X009642Y003760D02*
X009768Y003760D01*
X009795Y003998D02*
X016024Y003998D01*
X015822Y003760D02*
X010503Y003760D01*
X010516Y003746D02*
X010461Y003802D01*
X010397Y003848D01*
X010327Y003884D01*
X010252Y003908D01*
X010174Y003920D01*
X010135Y003920D01*
X010135Y003420D01*
X010135Y003420D01*
X010635Y003420D01*
X010635Y003460D01*
X010623Y003537D01*
X010598Y003612D01*
X010563Y003682D01*
X010516Y003746D01*
X010625Y003521D02*
X015822Y003521D01*
X015937Y003283D02*
X010616Y003283D01*
X010135Y003521D02*
X010135Y003521D01*
X010135Y003760D02*
X010135Y003760D01*
X009795Y004237D02*
X015839Y004237D01*
X015798Y004475D02*
X009795Y004475D01*
X008128Y003760D02*
X005137Y003760D01*
X004865Y003760D02*
X004865Y003760D01*
X004865Y003998D02*
X004865Y003998D01*
X004593Y003760D02*
X003082Y003760D01*
X003289Y003521D02*
X008366Y003521D01*
X007975Y003998D02*
X005375Y003998D01*
X005510Y004237D02*
X007975Y004237D01*
X007975Y004475D02*
X005510Y004475D01*
X004865Y004400D02*
X004865Y004400D01*
X004865Y004237D02*
X004865Y004237D01*
X004355Y003998D02*
X002725Y003998D01*
X004220Y004237D02*
X000777Y004237D01*
X000776Y004475D02*
X004220Y004475D01*
X004266Y004714D02*
X000774Y004714D01*
X000773Y004952D02*
X004505Y004952D01*
X004531Y005191D02*
X000771Y005191D01*
X000770Y005429D02*
X004302Y005429D01*
X004072Y005668D02*
X000768Y005668D01*
X000767Y005906D02*
X003843Y005906D01*
X003614Y006145D02*
X000765Y006145D01*
X000764Y006383D02*
X003384Y006383D01*
X003155Y006622D02*
X000762Y006622D01*
X000761Y006860D02*
X002926Y006860D01*
X002696Y007099D02*
X002405Y007099D01*
X001885Y007099D02*
X001885Y007099D01*
X001885Y007337D02*
X001885Y007337D01*
X001365Y007099D02*
X000759Y007099D01*
X000758Y007337D02*
X001120Y007337D01*
X001065Y007576D02*
X000756Y007576D01*
X000755Y007814D02*
X001126Y007814D01*
X001387Y008053D02*
X000753Y008053D01*
X000752Y008291D02*
X001159Y008291D01*
X001085Y008530D02*
X000750Y008530D01*
X000749Y008768D02*
X001126Y008768D01*
X001332Y009007D02*
X000747Y009007D01*
X000746Y009245D02*
X001203Y009245D01*
X001085Y009484D02*
X000744Y009484D01*
X000743Y009722D02*
X001107Y009722D01*
X001269Y009961D02*
X000741Y009961D01*
X000740Y010199D02*
X001249Y010199D01*
X001099Y010438D02*
X000738Y010438D01*
X000737Y010676D02*
X001088Y010676D01*
X001223Y010915D02*
X000735Y010915D01*
X000734Y011153D02*
X001295Y011153D01*
X001118Y011392D02*
X000732Y011392D01*
X000731Y011630D02*
X001085Y011630D01*
X001177Y011869D02*
X000729Y011869D01*
X000728Y012107D02*
X001396Y012107D01*
X001137Y012346D02*
X000726Y012346D01*
X000725Y012584D02*
X001085Y012584D01*
X001149Y012823D02*
X000723Y012823D01*
X000722Y013061D02*
X001464Y013061D01*
X001156Y013300D02*
X000720Y013300D01*
X000719Y013538D02*
X001085Y013538D01*
X001129Y013777D02*
X000717Y013777D01*
X000716Y014015D02*
X001353Y014015D01*
X000714Y014254D02*
X003136Y014254D01*
X003132Y014278D02*
X003147Y014183D01*
X003177Y014091D01*
X003220Y014005D01*
X003277Y013927D01*
X003346Y013858D01*
X003424Y013802D01*
X003510Y013758D01*
X003602Y013728D01*
X003697Y013713D01*
X003745Y013713D01*
X003745Y014720D01*
X003132Y014720D01*
X003132Y014278D01*
X003215Y014015D02*
X002417Y014015D01*
X002775Y013777D02*
X003473Y013777D01*
X003745Y013777D02*
X003745Y013777D01*
X003745Y013713D02*
X003794Y013713D01*
X003889Y013728D01*
X003981Y013758D01*
X004067Y013802D01*
X004145Y013858D01*
X004213Y013927D01*
X004270Y014005D01*
X004314Y014091D01*
X004344Y014183D01*
X004359Y014278D01*
X004359Y014720D01*
X003745Y014720D01*
X003745Y014720D01*
X003745Y014720D01*
X003132Y014720D01*
X003132Y015162D01*
X003147Y015258D01*
X003177Y015350D01*
X003220Y015436D01*
X003277Y015514D01*
X003346Y015582D01*
X003424Y015639D01*
X003510Y015683D01*
X003602Y015713D01*
X003697Y015728D01*
X003745Y015728D01*
X003745Y014720D01*
X003745Y013713D01*
X004018Y013777D02*
X004714Y013777D01*
X004648Y013538D02*
X003013Y013538D01*
X003252Y013300D02*
X004682Y013300D01*
X004840Y013061D02*
X003490Y013061D01*
X003729Y012823D02*
X005666Y012823D01*
X006557Y013777D02*
X014155Y013777D01*
X014155Y014015D02*
X006336Y014015D01*
X004935Y014015D02*
X004276Y014015D01*
X004355Y014254D02*
X009732Y014254D01*
X009547Y014438D02*
X009969Y014017D01*
X010267Y014017D01*
X010565Y014017D01*
X010987Y014438D01*
X010987Y014737D01*
X010987Y015035D01*
X010565Y015457D01*
X010267Y015457D01*
X009969Y015457D01*
X009547Y015035D01*
X009547Y014737D01*
X010267Y014737D01*
X010267Y015457D01*
X010267Y014737D01*
X010267Y014737D01*
X010267Y014737D01*
X010987Y014737D01*
X010267Y014737D01*
X010267Y014737D01*
X009547Y014737D01*
X009547Y014438D01*
X009547Y014492D02*
X004359Y014492D01*
X004359Y014720D02*
X004359Y015162D01*
X004344Y015258D01*
X004314Y015350D01*
X004270Y015436D01*
X004213Y015514D01*
X004145Y015582D01*
X004067Y015639D01*
X003981Y015683D01*
X003889Y015713D01*
X003794Y015728D01*
X003745Y015728D01*
X003745Y014720D01*
X003745Y014720D01*
X003745Y014720D01*
X004359Y014720D01*
X004359Y014731D02*
X009547Y014731D01*
X009547Y014969D02*
X004359Y014969D01*
X004352Y015208D02*
X009720Y015208D01*
X010267Y015208D02*
X010267Y015208D01*
X010267Y014969D02*
X010267Y014969D01*
X010267Y014737D02*
X010267Y014017D01*
X010267Y014737D01*
X010267Y014737D01*
X010267Y014731D02*
X010267Y014731D01*
X010267Y014492D02*
X010267Y014492D01*
X010267Y014254D02*
X010267Y014254D01*
X010802Y014254D02*
X013530Y014254D01*
X013551Y014233D02*
X013750Y014233D01*
X013750Y014713D01*
X013270Y014713D01*
X013270Y014514D01*
X013551Y014233D01*
X013750Y014254D02*
X013750Y014254D01*
X013970Y014254D02*
X014155Y014254D01*
X014715Y014254D02*
X015261Y014254D01*
X015461Y014254D02*
X015461Y014254D01*
X015661Y014254D02*
X017012Y014254D01*
X017030Y014235D02*
X016749Y014517D01*
X016749Y014715D01*
X017229Y014715D01*
X017229Y014235D01*
X017428Y014235D01*
X017709Y014517D01*
X017709Y014715D01*
X017229Y014715D01*
X017229Y014715D01*
X017229Y014235D01*
X017030Y014235D01*
X017229Y014254D02*
X017229Y014254D01*
X017446Y014254D02*
X018646Y014254D01*
X018414Y014015D02*
X014715Y014015D01*
X014715Y013777D02*
X018385Y013777D01*
X018385Y013538D02*
X017924Y013538D01*
X018049Y013300D02*
X018385Y013300D01*
X018385Y013061D02*
X018059Y013061D01*
X017969Y012823D02*
X018278Y012823D01*
X019182Y012584D02*
X019362Y012584D01*
X019215Y012823D02*
X019600Y012823D01*
X019440Y013061D02*
X019215Y013061D01*
X019215Y013300D02*
X019402Y013300D01*
X019460Y013538D02*
X019215Y013538D01*
X020029Y012823D02*
X020534Y012823D01*
X020390Y012584D02*
X020267Y012584D01*
X020294Y012346D02*
X020354Y012346D01*
X020415Y012107D02*
X020242Y012107D01*
X020073Y011869D02*
X019697Y011869D01*
X019814Y012107D02*
X019814Y012107D01*
X019814Y012346D02*
X019814Y012346D01*
X019334Y012346D02*
X018957Y012346D01*
X018718Y012107D02*
X019387Y012107D01*
X019073Y011869D02*
X018354Y011869D01*
X018593Y011630D02*
X018929Y011630D01*
X018925Y011392D02*
X018831Y011392D01*
X018895Y011153D02*
X018925Y011153D01*
X018927Y010915D02*
X018895Y010915D01*
X018895Y010676D02*
X019069Y010676D01*
X019702Y010676D02*
X020069Y010676D01*
X019927Y010915D02*
X019843Y010915D01*
X019845Y011153D02*
X019925Y011153D01*
X019925Y011392D02*
X019845Y011392D01*
X019842Y011630D02*
X019929Y011630D01*
X020903Y011392D02*
X020925Y011392D01*
X020925Y011153D02*
X020845Y011153D01*
X020843Y010915D02*
X020927Y010915D01*
X021069Y010676D02*
X020702Y010676D01*
X021702Y010676D02*
X022069Y010676D01*
X021927Y010915D02*
X021843Y010915D01*
X021845Y011153D02*
X021925Y011153D01*
X021925Y011392D02*
X021845Y011392D01*
X021842Y011630D02*
X021929Y011630D01*
X022073Y011869D02*
X021697Y011869D01*
X021665Y012107D02*
X021952Y012107D01*
X021714Y012346D02*
X021665Y012346D01*
X022267Y012584D02*
X022928Y012584D01*
X022928Y012732D02*
X022928Y012330D01*
X023045Y012213D01*
X023105Y012213D01*
X023105Y011901D01*
X022995Y011791D01*
X022925Y011622D01*
X022925Y010919D01*
X022995Y010750D01*
X023125Y010620D01*
X023294Y010550D01*
X023477Y010550D01*
X023646Y010620D01*
X023775Y010750D01*
X023845Y010919D01*
X023845Y011622D01*
X023775Y011791D01*
X023665Y011901D01*
X023665Y012213D01*
X023725Y012213D01*
X023843Y012330D01*
X023843Y013011D01*
X023725Y013128D01*
X023324Y013128D01*
X022808Y013643D01*
X022945Y013780D01*
X022945Y014161D01*
X022676Y014430D01*
X022295Y014430D01*
X022025Y014161D01*
X022025Y013780D01*
X022205Y013600D01*
X022205Y013515D01*
X022248Y013412D01*
X022327Y013333D01*
X022928Y012732D01*
X022837Y012823D02*
X022029Y012823D01*
X022015Y013061D02*
X022598Y013061D01*
X022360Y013300D02*
X022015Y013300D01*
X022015Y013538D02*
X022205Y013538D01*
X022028Y013777D02*
X022015Y013777D01*
X022025Y014015D02*
X021836Y014015D01*
X021598Y014254D02*
X022118Y014254D01*
X022286Y014490D02*
X022005Y014771D01*
X022005Y014970D01*
X022485Y014970D01*
X022485Y014970D01*
X022485Y014490D01*
X022286Y014490D01*
X022284Y014492D02*
X021359Y014492D01*
X021104Y014969D02*
X022005Y014969D01*
X022005Y014970D02*
X022485Y014970D01*
X022485Y014970D01*
X022485Y014490D01*
X022684Y014490D01*
X022965Y014771D01*
X022965Y014970D01*
X022485Y014970D01*
X022485Y014970D01*
X022485Y015450D01*
X022286Y015450D01*
X022005Y015169D01*
X022005Y014970D01*
X022044Y015208D02*
X021234Y015208D01*
X021234Y015446D02*
X022282Y015446D01*
X022485Y015446D02*
X022485Y015446D01*
X022485Y015450D02*
X022485Y014970D01*
X022485Y014970D01*
X022965Y014970D01*
X022965Y015169D01*
X022684Y015450D01*
X022485Y015450D01*
X022688Y015446D02*
X025931Y015446D01*
X025925Y015685D02*
X021054Y015685D01*
X021054Y015923D02*
X026016Y015923D01*
X026105Y016162D02*
X021054Y016162D01*
X021054Y016400D02*
X026105Y016400D01*
X026105Y016639D02*
X021054Y016639D01*
X021054Y016877D02*
X026105Y016877D01*
X026105Y017116D02*
X021054Y017116D01*
X021054Y017354D02*
X026105Y017354D01*
X025484Y017593D02*
X021054Y017593D01*
X020494Y017593D02*
X019753Y017593D01*
X019515Y017354D02*
X020494Y017354D01*
X020494Y017116D02*
X019760Y017116D01*
X019442Y017116D02*
X019442Y017116D01*
X019442Y016877D02*
X019442Y016877D01*
X019442Y016639D02*
X019442Y016639D01*
X019442Y016400D02*
X019442Y016400D01*
X019922Y016400D02*
X020494Y016400D01*
X020494Y016639D02*
X019977Y016639D01*
X019977Y016877D02*
X020494Y016877D01*
X018962Y016400D02*
X018885Y016400D01*
X019201Y016162D02*
X018322Y016162D01*
X018084Y015923D02*
X020494Y015923D01*
X020494Y015685D02*
X020146Y015685D01*
X019862Y015685D02*
X019862Y015685D01*
X019862Y015770D02*
X019663Y015770D01*
X019382Y015489D01*
X019382Y015290D01*
X019382Y015091D01*
X019663Y014810D01*
X019862Y014810D01*
X019862Y015290D01*
X019862Y015290D01*
X019862Y015290D01*
X019382Y015290D01*
X019862Y015290D01*
X019862Y015290D01*
X019862Y015770D01*
X019578Y015685D02*
X017845Y015685D01*
X017610Y015446D02*
X019382Y015446D01*
X019862Y015446D02*
X019862Y015446D01*
X019862Y015208D02*
X019862Y015208D01*
X019862Y014969D02*
X019862Y014969D01*
X020220Y014969D02*
X020444Y014969D01*
X019504Y014969D02*
X017654Y014969D01*
X017709Y014914D02*
X017428Y015195D01*
X017229Y015195D01*
X017229Y014715D01*
X017229Y014715D01*
X017229Y014715D01*
X016749Y014715D01*
X016749Y014914D01*
X017030Y015195D01*
X017229Y015195D01*
X017229Y014715D01*
X017709Y014715D01*
X017709Y014914D01*
X017709Y014731D02*
X022046Y014731D01*
X022485Y014731D02*
X022485Y014731D01*
X022485Y014969D02*
X022485Y014969D01*
X022485Y015208D02*
X022485Y015208D01*
X022926Y015208D02*
X024824Y015208D01*
X024755Y015139D02*
X024755Y014940D01*
X024755Y014741D01*
X025036Y014460D01*
X025235Y014460D01*
X025235Y014940D01*
X025235Y014940D01*
X024755Y014940D01*
X025235Y014940D01*
X025235Y014940D01*
X025235Y014460D01*
X025434Y014460D01*
X025715Y014741D01*
X025715Y014940D01*
X025235Y014940D01*
X025235Y014940D01*
X025235Y015420D01*
X025036Y015420D01*
X024755Y015139D01*
X024755Y014969D02*
X022965Y014969D01*
X022924Y014731D02*
X024766Y014731D01*
X025004Y014492D02*
X022686Y014492D01*
X022485Y014492D02*
X022485Y014492D01*
X022852Y014254D02*
X024898Y014254D01*
X024775Y014131D02*
X025045Y014400D01*
X025426Y014400D01*
X025695Y014131D01*
X025695Y013750D01*
X025515Y013570D01*
X025515Y013465D01*
X025472Y013362D01*
X024843Y012732D01*
X024843Y012330D01*
X024725Y012213D01*
X024665Y012213D01*
X024665Y011901D01*
X024775Y011791D01*
X024845Y011622D01*
X024845Y010919D01*
X024775Y010750D01*
X024646Y010620D01*
X024477Y010550D01*
X024294Y010550D01*
X024125Y010620D01*
X023995Y010750D01*
X023925Y010919D01*
X023925Y011622D01*
X023995Y011791D01*
X024105Y011901D01*
X024105Y012213D01*
X024045Y012213D01*
X023928Y012330D01*
X023928Y013011D01*
X024045Y013128D01*
X024447Y013128D01*
X024922Y013603D01*
X024775Y013750D01*
X024775Y014131D01*
X024775Y014015D02*
X022945Y014015D01*
X022942Y013777D02*
X024775Y013777D01*
X024857Y013538D02*
X022913Y013538D01*
X023152Y013300D02*
X024619Y013300D01*
X025172Y013061D02*
X026065Y013061D01*
X026065Y013300D02*
X025411Y013300D01*
X025385Y013050D02*
X025584Y013050D01*
X025865Y012769D01*
X025865Y012570D01*
X025385Y012570D01*
X025385Y012570D01*
X025385Y012090D01*
X025186Y012090D01*
X024905Y012371D01*
X024905Y012570D01*
X025385Y012570D01*
X025385Y012570D01*
X025385Y012090D01*
X025584Y012090D01*
X025865Y012371D01*
X025865Y012570D01*
X025385Y012570D01*
X024905Y012570D01*
X024905Y012769D01*
X025186Y013050D01*
X025385Y013050D01*
X025385Y012570D01*
X025385Y012570D01*
X025385Y012570D01*
X025385Y013050D01*
X025385Y012823D02*
X025385Y012823D01*
X025385Y012584D02*
X025385Y012584D01*
X024905Y012584D02*
X024843Y012584D01*
X024934Y012823D02*
X024959Y012823D01*
X025811Y012823D02*
X025987Y012823D01*
X025925Y012584D02*
X025865Y012584D01*
X026385Y012570D02*
X026385Y013642D01*
X025925Y013538D02*
X025515Y013538D01*
X025695Y013777D02*
X025925Y013777D01*
X026108Y014015D02*
X025695Y014015D01*
X025572Y014254D02*
X026406Y014254D01*
X026167Y014492D02*
X025466Y014492D01*
X025235Y014492D02*
X025235Y014492D01*
X025235Y014731D02*
X025235Y014731D01*
X025235Y014940D02*
X025715Y014940D01*
X025715Y015139D01*
X025434Y015420D01*
X025235Y015420D01*
X025235Y014940D01*
X025235Y014940D01*
X025235Y014969D02*
X025235Y014969D01*
X025235Y015208D02*
X025235Y015208D01*
X025646Y015208D02*
X026105Y015208D01*
X026105Y014969D02*
X025715Y014969D01*
X025704Y014731D02*
X026105Y014731D01*
X026665Y014969D02*
X027087Y014969D01*
X027065Y014731D02*
X026721Y014731D01*
X026959Y014492D02*
X027065Y014492D01*
X027065Y014520D02*
X027585Y014520D01*
X027585Y014520D01*
X027585Y013700D01*
X027544Y013700D01*
X027463Y013713D01*
X027386Y013738D01*
X027313Y013775D01*
X027246Y013824D01*
X027215Y013855D01*
X027215Y013120D01*
X027313Y013022D01*
X027568Y013022D01*
X027837Y012752D01*
X027837Y012618D01*
X028305Y013086D01*
X028305Y013795D01*
X028302Y013796D01*
X028161Y013937D01*
X028093Y014102D01*
X028092Y014098D01*
X028067Y014021D01*
X028030Y013948D01*
X027982Y013881D01*
X027924Y013824D01*
X027858Y013775D01*
X027785Y013738D01*
X027707Y013713D01*
X027626Y013700D01*
X027585Y013700D01*
X027585Y014520D01*
X027585Y014520D01*
X027065Y014520D01*
X027585Y014520D02*
X027585Y015340D01*
X027585Y014520D01*
X027585Y014520D01*
X027585Y014492D02*
X027585Y014492D01*
X027585Y014731D02*
X027585Y014731D01*
X027585Y014969D02*
X027585Y014969D01*
X027585Y015208D02*
X027585Y015208D01*
X027237Y015208D02*
X026665Y015208D01*
X026840Y015446D02*
X031355Y015446D01*
X031355Y015685D02*
X026845Y015685D01*
X026755Y015923D02*
X031355Y015923D01*
X031355Y016162D02*
X026665Y016162D01*
X026665Y016400D02*
X031355Y016400D01*
X031355Y016639D02*
X026665Y016639D01*
X026665Y016877D02*
X031355Y016877D01*
X031355Y017116D02*
X026665Y017116D01*
X026665Y017354D02*
X031205Y017354D01*
X030967Y017593D02*
X027387Y017593D01*
X026684Y017593D02*
X026665Y017593D01*
X031759Y017593D02*
X035967Y017593D01*
X036205Y017354D02*
X031915Y017354D01*
X031915Y017116D02*
X036255Y017116D01*
X036255Y016877D02*
X031915Y016877D01*
X031915Y016639D02*
X036255Y016639D01*
X036255Y016400D02*
X031915Y016400D01*
X031915Y016162D02*
X036255Y016162D01*
X036255Y015923D02*
X031915Y015923D01*
X031915Y015685D02*
X036255Y015685D01*
X036255Y015446D02*
X031915Y015446D01*
X031955Y015208D02*
X032287Y015208D01*
X032137Y014969D02*
X032115Y014969D01*
X031316Y015208D02*
X030955Y015208D01*
X031115Y014969D02*
X031156Y014969D01*
X031135Y014731D02*
X031135Y014731D01*
X031135Y014492D02*
X031135Y014492D01*
X031135Y014254D02*
X031135Y014254D01*
X031091Y014015D02*
X031179Y014015D01*
X031399Y013777D02*
X030915Y013777D01*
X030915Y013538D02*
X031432Y013538D01*
X031179Y013300D02*
X030811Y013300D01*
X030925Y013061D02*
X030572Y013061D01*
X030671Y012823D02*
X030334Y012823D01*
X030417Y012584D02*
X030095Y012584D01*
X030163Y012346D02*
X029857Y012346D01*
X029665Y012107D02*
X030105Y012107D01*
X030073Y011869D02*
X029697Y011869D01*
X029842Y011630D02*
X029929Y011630D01*
X029925Y011392D02*
X029845Y011392D01*
X029845Y011153D02*
X029925Y011153D01*
X029927Y010915D02*
X029843Y010915D01*
X029702Y010676D02*
X030069Y010676D01*
X030702Y010676D02*
X031069Y010676D01*
X030927Y010915D02*
X030843Y010915D01*
X030845Y011153D02*
X030925Y011153D01*
X030925Y011392D02*
X030845Y011392D01*
X030842Y011630D02*
X030929Y011630D01*
X031073Y011869D02*
X030697Y011869D01*
X030727Y012107D02*
X031105Y012107D01*
X031105Y012346D02*
X030981Y012346D01*
X031665Y012346D02*
X031943Y012346D01*
X032105Y012107D02*
X031665Y012107D01*
X031697Y011869D02*
X032073Y011869D01*
X031929Y011630D02*
X031842Y011630D01*
X031845Y011392D02*
X031925Y011392D01*
X031925Y011153D02*
X031845Y011153D01*
X031843Y010915D02*
X031927Y010915D01*
X031895Y010676D02*
X031702Y010676D01*
X032449Y010438D02*
X034195Y010438D01*
X034195Y010470D02*
X034675Y010470D01*
X034675Y010470D01*
X034675Y010470D01*
X034675Y010950D01*
X034476Y010950D01*
X034195Y010669D01*
X034195Y010470D01*
X034267Y010199D02*
X032210Y010199D01*
X032702Y010676D02*
X034202Y010676D01*
X034441Y010915D02*
X032843Y010915D01*
X033733Y011153D02*
X034806Y011153D01*
X034874Y010950D02*
X034675Y010950D01*
X034675Y010470D01*
X034675Y010470D01*
X035155Y010470D01*
X035155Y010669D01*
X034874Y010950D01*
X034909Y010915D02*
X035045Y010915D01*
X035148Y010676D02*
X035283Y010676D01*
X035207Y010438D02*
X035155Y010438D01*
X034675Y010676D02*
X034675Y010676D01*
X034675Y010915D02*
X034675Y010915D01*
X034655Y011392D02*
X033855Y011392D01*
X033855Y011630D02*
X034655Y011630D01*
X034655Y011869D02*
X033642Y011869D01*
X033594Y011985D02*
X033875Y012267D01*
X033875Y012465D01*
X033395Y012465D01*
X033395Y011985D01*
X033594Y011985D01*
X033716Y012107D02*
X034655Y012107D01*
X034655Y012346D02*
X033875Y012346D01*
X033875Y012465D02*
X033875Y012664D01*
X033594Y012945D01*
X033395Y012945D01*
X033395Y012465D01*
X033395Y012465D01*
X033395Y011985D01*
X033196Y011985D01*
X032915Y012267D01*
X032915Y012465D01*
X033395Y012465D01*
X033395Y012465D01*
X033395Y012465D01*
X033875Y012465D01*
X033875Y012584D02*
X034655Y012584D01*
X034742Y012823D02*
X033716Y012823D01*
X033395Y012823D02*
X033395Y012823D01*
X033395Y012945D02*
X033196Y012945D01*
X032915Y012664D01*
X032915Y012465D01*
X033395Y012465D01*
X033395Y012465D01*
X033395Y012945D01*
X033074Y012823D02*
X032767Y012823D01*
X032837Y012584D02*
X032915Y012584D01*
X033395Y012584D02*
X033395Y012584D01*
X033395Y012346D02*
X033395Y012346D01*
X033395Y012107D02*
X033395Y012107D01*
X033074Y012107D02*
X032665Y012107D01*
X032697Y011869D02*
X033148Y011869D01*
X032935Y011630D02*
X032842Y011630D01*
X032812Y012346D02*
X032915Y012346D01*
X031917Y012584D02*
X031695Y012584D01*
X031934Y012823D02*
X031988Y012823D01*
X032172Y013061D02*
X034980Y013061D01*
X035219Y013300D02*
X034311Y013300D01*
X034549Y013538D02*
X036157Y013538D01*
X036255Y013777D02*
X035909Y013777D01*
X035635Y013777D02*
X035635Y013777D01*
X035635Y014015D02*
X035635Y014015D01*
X035635Y014254D02*
X035635Y014254D01*
X036155Y014254D02*
X036255Y014254D01*
X036255Y014015D02*
X036114Y014015D01*
X036815Y014015D02*
X040150Y014015D01*
X040085Y014254D02*
X036815Y014254D01*
X036815Y014492D02*
X040136Y014492D01*
X040390Y014731D02*
X036815Y014731D01*
X036815Y014969D02*
X039709Y014969D01*
X039452Y015208D02*
X036815Y015208D01*
X036255Y015208D02*
X035983Y015208D01*
X035974Y015217D02*
X035908Y015265D01*
X035835Y015302D01*
X035757Y015327D01*
X035676Y015340D01*
X035635Y015340D01*
X035635Y014520D01*
X035635Y014520D01*
X036155Y014520D01*
X036155Y014861D01*
X036142Y014942D01*
X036117Y015020D01*
X036080Y015093D01*
X036032Y015159D01*
X035974Y015217D01*
X036133Y014969D02*
X036255Y014969D01*
X036255Y014731D02*
X036155Y014731D01*
X036155Y014492D02*
X036255Y014492D01*
X035635Y014492D02*
X035635Y014492D01*
X035635Y014731D02*
X035635Y014731D01*
X035635Y014969D02*
X035635Y014969D01*
X035635Y015208D02*
X035635Y015208D01*
X035287Y015208D02*
X034955Y015208D01*
X035115Y014969D02*
X035137Y014969D01*
X034316Y015208D02*
X033955Y015208D01*
X034115Y014969D02*
X034156Y014969D01*
X034135Y014920D02*
X034135Y014121D01*
X034059Y013937D01*
X033918Y013796D01*
X033735Y013720D01*
X033536Y013720D01*
X033509Y013731D01*
X033483Y013700D01*
X033919Y013700D01*
X034195Y013976D01*
X034135Y014121D01*
X034135Y014920D01*
X034135Y014731D02*
X034135Y014731D01*
X034135Y014492D02*
X034135Y014492D01*
X034135Y014254D02*
X034135Y014254D01*
X034091Y014015D02*
X034179Y014015D01*
X033996Y013777D02*
X033871Y013777D01*
X034871Y013777D02*
X035361Y013777D01*
X035156Y014015D02*
X035091Y014015D01*
X036815Y013777D02*
X037696Y013777D01*
X037457Y013538D02*
X036815Y013538D01*
X036711Y013300D02*
X037219Y013300D01*
X038185Y013270D02*
X040885Y013270D01*
X040359Y012823D02*
X038190Y012823D01*
X038389Y012584D02*
X037952Y012584D01*
X037713Y012346D02*
X038265Y012346D01*
X038295Y012107D02*
X037475Y012107D01*
X037185Y012270D02*
X038185Y013270D01*
X039582Y012584D02*
X040192Y012584D01*
X041411Y012823D02*
X041855Y012823D01*
X041855Y013061D02*
X041640Y013061D01*
X041685Y013300D02*
X041855Y013300D01*
X041855Y013538D02*
X041615Y013538D01*
X041855Y013777D02*
X041300Y013777D01*
X041621Y014015D02*
X041855Y014015D01*
X041855Y014254D02*
X041685Y014254D01*
X041634Y014492D02*
X041855Y014492D01*
X041629Y014731D02*
X041380Y014731D01*
X039213Y015446D02*
X036815Y015446D01*
X036815Y015685D02*
X038975Y015685D01*
X038736Y015923D02*
X036815Y015923D01*
X036815Y016162D02*
X038498Y016162D01*
X038259Y016400D02*
X036815Y016400D01*
X036815Y016639D02*
X038021Y016639D01*
X037782Y016877D02*
X036815Y016877D01*
X036815Y017116D02*
X037544Y017116D01*
X037305Y017354D02*
X036815Y017354D01*
X036759Y017593D02*
X037067Y017593D01*
X036828Y017831D02*
X036520Y017831D01*
X032635Y015340D02*
X032635Y014520D01*
X032635Y015340D01*
X032635Y015208D02*
X032635Y015208D01*
X032635Y014969D02*
X032635Y014969D01*
X032635Y014731D02*
X032635Y014731D01*
X032635Y014520D02*
X032635Y014520D01*
X033133Y014969D02*
X033156Y014969D01*
X033316Y015208D02*
X032983Y015208D01*
X030316Y015208D02*
X029905Y015208D01*
X030065Y014969D02*
X030156Y014969D01*
X030135Y014731D02*
X030085Y014731D01*
X030085Y014492D02*
X030135Y014492D01*
X030135Y014254D02*
X030085Y014254D01*
X030041Y014015D02*
X030179Y014015D01*
X030355Y013777D02*
X029865Y013777D01*
X029865Y013538D02*
X030257Y013538D01*
X030019Y013300D02*
X029811Y013300D01*
X029780Y013061D02*
X029572Y013061D01*
X029542Y012823D02*
X029334Y012823D01*
X029303Y012584D02*
X029095Y012584D01*
X029113Y012346D02*
X028857Y012346D01*
X028665Y012107D02*
X029105Y012107D01*
X029073Y011869D02*
X028697Y011869D01*
X028842Y011630D02*
X028929Y011630D01*
X028925Y011392D02*
X028845Y011392D01*
X028845Y011153D02*
X028925Y011153D01*
X028927Y010915D02*
X028843Y010915D01*
X028702Y010676D02*
X029069Y010676D01*
X028263Y010438D02*
X018895Y010438D01*
X018895Y010199D02*
X027968Y010199D01*
X027730Y009961D02*
X018895Y009961D01*
X018895Y009722D02*
X027491Y009722D01*
X027253Y009484D02*
X018895Y009484D01*
X018895Y009245D02*
X021364Y009245D01*
X021139Y009007D02*
X018895Y009007D01*
X019784Y008768D02*
X019986Y008768D01*
X019925Y008530D02*
X019851Y008530D01*
X019915Y008291D02*
X019925Y008291D01*
X019925Y008053D02*
X019869Y008053D01*
X019802Y007814D02*
X019968Y007814D01*
X019995Y007576D02*
X019538Y007576D01*
X019232Y007576D02*
X010560Y007576D01*
X010955Y007814D02*
X016081Y007814D01*
X015882Y008053D02*
X011194Y008053D01*
X011366Y008291D02*
X015835Y008291D01*
X015899Y008530D02*
X011504Y008530D01*
X011576Y008768D02*
X016182Y008768D01*
X015901Y009007D02*
X011640Y009007D01*
X011645Y009245D02*
X015835Y009245D01*
X015880Y009484D02*
X011645Y009484D01*
X011589Y009722D02*
X016071Y009722D01*
X015910Y009961D02*
X011525Y009961D01*
X011395Y010199D02*
X015820Y010199D01*
X015815Y010270D02*
X016695Y010270D01*
X016695Y010270D01*
X015815Y010270D01*
X015841Y010438D02*
X011244Y010438D01*
X011005Y010676D02*
X015993Y010676D01*
X016695Y010676D02*
X016695Y010676D01*
X016695Y010820D02*
X016695Y010270D01*
X016695Y010270D01*
X016695Y010820D01*
X016792Y010915D02*
X010647Y010915D01*
X010106Y011153D02*
X006180Y011153D01*
X006180Y011150D02*
X006180Y011417D01*
X005802Y011795D01*
X005535Y011795D01*
X005268Y011795D01*
X004890Y011417D01*
X004890Y011150D01*
X004890Y010883D01*
X005268Y010505D01*
X005535Y010505D01*
X005535Y011150D01*
X005535Y011150D01*
X004890Y011150D01*
X005535Y011150D01*
X005535Y011150D01*
X005535Y010505D01*
X005802Y010505D01*
X006180Y010883D01*
X006180Y011150D01*
X005535Y011150D01*
X005535Y011150D01*
X005535Y011795D01*
X005535Y011150D01*
X005535Y011150D01*
X006180Y011150D01*
X006180Y010915D02*
X008944Y010915D01*
X008585Y010676D02*
X005973Y010676D01*
X005535Y010676D02*
X005535Y010676D01*
X005535Y010915D02*
X005535Y010915D01*
X005535Y011153D02*
X005535Y011153D01*
X005535Y011392D02*
X005535Y011392D01*
X004890Y011392D02*
X002860Y011392D01*
X003098Y011153D02*
X004890Y011153D01*
X004890Y010915D02*
X003337Y010915D01*
X003415Y010676D02*
X005097Y010676D01*
X006180Y011392D02*
X009868Y011392D01*
X009629Y011630D02*
X005967Y011630D01*
X005535Y011630D02*
X005535Y011630D01*
X005103Y011630D02*
X002685Y011630D01*
X002594Y011869D02*
X003511Y011869D01*
X003252Y012107D02*
X002374Y012107D01*
X002306Y013061D02*
X002698Y013061D01*
X003745Y014015D02*
X003745Y014015D01*
X003745Y014254D02*
X003745Y014254D01*
X003745Y014492D02*
X003745Y014492D01*
X003745Y014731D02*
X003745Y014731D01*
X003745Y014969D02*
X003745Y014969D01*
X003745Y015208D02*
X003745Y015208D01*
X003139Y015208D02*
X000708Y015208D01*
X000710Y014969D02*
X003132Y014969D01*
X003132Y014731D02*
X000711Y014731D01*
X000713Y014492D02*
X003132Y014492D01*
X004842Y015433D02*
X004920Y015376D01*
X005006Y015333D01*
X005098Y015303D01*
X005193Y015288D01*
X005635Y015288D01*
X005635Y015901D01*
X005635Y015901D01*
X005635Y015288D01*
X006077Y015288D01*
X006173Y015303D01*
X006264Y015333D01*
X006350Y015376D01*
X006429Y015433D01*
X006497Y015502D01*
X006554Y015580D01*
X006598Y015666D01*
X006627Y015758D01*
X006643Y015853D01*
X006643Y015901D01*
X005635Y015901D01*
X004628Y015901D01*
X004628Y015853D01*
X004643Y015758D01*
X004673Y015666D01*
X004717Y015580D01*
X004773Y015502D01*
X004842Y015433D01*
X004829Y015446D02*
X004262Y015446D01*
X003975Y015685D02*
X004667Y015685D01*
X004628Y015901D02*
X005635Y015901D01*
X005635Y015901D01*
X005635Y015901D01*
X006643Y015901D01*
X006643Y015950D01*
X006627Y016045D01*
X006598Y016137D01*
X006554Y016223D01*
X006497Y016301D01*
X006429Y016369D01*
X006350Y016426D01*
X006264Y016470D01*
X006173Y016500D01*
X006077Y016515D01*
X005635Y016515D01*
X005193Y016515D01*
X005098Y016500D01*
X005006Y016470D01*
X004920Y016426D01*
X004842Y016369D01*
X004773Y016301D01*
X004717Y016223D01*
X004673Y016137D01*
X004643Y016045D01*
X004628Y015950D01*
X004628Y015901D01*
X004628Y015923D02*
X003205Y015923D01*
X003406Y016162D02*
X004685Y016162D01*
X004884Y016400D02*
X003515Y016400D01*
X003616Y016639D02*
X009567Y016639D01*
X009567Y016597D02*
X009674Y016340D01*
X009870Y016143D01*
X010128Y016037D01*
X010406Y016037D01*
X010664Y016143D01*
X010860Y016340D01*
X010967Y016597D01*
X010967Y016876D01*
X010919Y016992D01*
X011567Y017640D01*
X014665Y017640D01*
X014845Y017460D01*
X015226Y017460D01*
X015495Y017730D01*
X015495Y018111D01*
X015226Y018380D01*
X014845Y018380D01*
X014665Y018200D01*
X011395Y018200D01*
X011292Y018158D01*
X010523Y017388D01*
X010406Y017437D01*
X010128Y017437D01*
X009870Y017330D01*
X009674Y017133D01*
X009567Y016876D01*
X009567Y016597D01*
X009649Y016400D02*
X006386Y016400D01*
X005635Y016400D02*
X005635Y016400D01*
X005635Y016515D02*
X005635Y015901D01*
X005635Y016515D01*
X005635Y016162D02*
X005635Y016162D01*
X005635Y015923D02*
X005635Y015923D01*
X005635Y015901D02*
X005635Y015901D01*
X005635Y015685D02*
X005635Y015685D01*
X005635Y015446D02*
X005635Y015446D01*
X006442Y015446D02*
X009958Y015446D01*
X010267Y015446D02*
X010267Y015446D01*
X010576Y015446D02*
X013366Y015446D01*
X013290Y015685D02*
X006604Y015685D01*
X006643Y015923D02*
X013310Y015923D01*
X013549Y016162D02*
X010682Y016162D01*
X010885Y016400D02*
X015359Y016400D01*
X015121Y016639D02*
X014684Y016639D01*
X015436Y017116D02*
X016378Y017116D01*
X016335Y016877D02*
X015674Y016877D01*
X015913Y016639D02*
X016426Y016639D01*
X016151Y016400D02*
X017769Y016400D01*
X017684Y016639D02*
X017927Y016639D01*
X017967Y016877D02*
X017775Y016877D01*
X017732Y017116D02*
X018155Y017116D01*
X018723Y017354D02*
X017469Y017354D01*
X017358Y017593D02*
X018962Y017593D01*
X019200Y017831D02*
X017495Y017831D01*
X016712Y017593D02*
X015358Y017593D01*
X015495Y017831D02*
X016575Y017831D01*
X016575Y018070D02*
X015495Y018070D01*
X015298Y018308D02*
X016773Y018308D01*
X016641Y017354D02*
X014469Y017354D01*
X014712Y017593D02*
X011519Y017593D01*
X011281Y017354D02*
X013641Y017354D01*
X013378Y017116D02*
X011042Y017116D01*
X010966Y016877D02*
X013335Y016877D01*
X013426Y016639D02*
X010967Y016639D01*
X009852Y016162D02*
X006585Y016162D01*
X003745Y015685D02*
X003745Y015685D01*
X003516Y015685D02*
X002947Y015685D01*
X003228Y015446D02*
X002508Y015446D01*
X003745Y015446D02*
X003745Y015446D01*
X001262Y015446D02*
X000707Y015446D01*
X000705Y015685D02*
X000823Y015685D01*
X003650Y016877D02*
X009568Y016877D01*
X009666Y017116D02*
X003684Y017116D01*
X003651Y017354D02*
X009929Y017354D01*
X010727Y017593D02*
X003617Y017593D01*
X003519Y017831D02*
X010966Y017831D01*
X011204Y018070D02*
X003410Y018070D01*
X003213Y018308D02*
X014773Y018308D01*
X013952Y016162D02*
X015598Y016162D01*
X015681Y015923D02*
X015171Y015923D01*
X015409Y015685D02*
X015513Y015685D01*
X015501Y015446D02*
X015421Y015446D01*
X015461Y015208D02*
X015461Y015208D01*
X015461Y014969D02*
X015461Y014969D01*
X015461Y014731D02*
X015461Y014731D01*
X015461Y014492D02*
X015461Y014492D01*
X015900Y014492D02*
X016773Y014492D01*
X016749Y014731D02*
X015941Y014731D01*
X015903Y014969D02*
X016804Y014969D01*
X017229Y014969D02*
X017229Y014969D01*
X017229Y014731D02*
X017229Y014731D01*
X017229Y014715D02*
X017229Y014715D01*
X017229Y014492D02*
X017229Y014492D01*
X017685Y014492D02*
X018901Y014492D01*
X019382Y015208D02*
X016337Y015208D01*
X015019Y014969D02*
X014844Y014969D01*
X014715Y014731D02*
X014981Y014731D01*
X015022Y014492D02*
X014715Y014492D01*
X013750Y014492D02*
X013750Y014492D01*
X013750Y014713D02*
X013750Y014713D01*
X013750Y014731D02*
X013750Y014731D01*
X013750Y014969D02*
X013750Y014969D01*
X013328Y014969D02*
X010987Y014969D01*
X010987Y014731D02*
X013270Y014731D01*
X013292Y014492D02*
X010987Y014492D01*
X010814Y015208D02*
X014290Y015208D01*
X016241Y016162D02*
X017025Y016162D01*
X017433Y016162D02*
X017531Y016162D01*
X019442Y016162D02*
X019442Y016162D01*
X019683Y016162D02*
X020494Y016162D01*
X023792Y013061D02*
X023978Y013061D01*
X023928Y012823D02*
X023843Y012823D01*
X023843Y012584D02*
X023928Y012584D01*
X023928Y012346D02*
X023843Y012346D01*
X023665Y012107D02*
X024105Y012107D01*
X024073Y011869D02*
X023697Y011869D01*
X023842Y011630D02*
X023929Y011630D01*
X023925Y011392D02*
X023845Y011392D01*
X023845Y011153D02*
X023925Y011153D01*
X023927Y010915D02*
X023843Y010915D01*
X023702Y010676D02*
X024069Y010676D01*
X024702Y010676D02*
X025040Y010676D01*
X025019Y010698D02*
X025072Y010644D01*
X025134Y010600D01*
X025201Y010565D01*
X025273Y010542D01*
X025347Y010530D01*
X025385Y010530D01*
X025385Y011270D01*
X025385Y011270D01*
X024905Y011270D01*
X024905Y010972D01*
X024917Y010898D01*
X024940Y010826D01*
X024975Y010759D01*
X025019Y010698D01*
X024914Y010915D02*
X024843Y010915D01*
X024845Y011153D02*
X024905Y011153D01*
X024905Y011270D02*
X025385Y011270D01*
X025385Y011270D01*
X025385Y010530D01*
X025423Y010530D01*
X025498Y010542D01*
X025569Y010565D01*
X025637Y010600D01*
X025698Y010644D01*
X025751Y010698D01*
X025796Y010759D01*
X025830Y010826D01*
X025853Y010898D01*
X025865Y010972D01*
X025865Y011270D01*
X025385Y011270D01*
X025385Y011270D01*
X025385Y012010D01*
X025347Y012010D01*
X025273Y011998D01*
X025201Y011975D01*
X025134Y011941D01*
X025072Y011896D01*
X025019Y011843D01*
X024975Y011782D01*
X024940Y011714D01*
X024917Y011643D01*
X024905Y011568D01*
X024905Y011270D01*
X024905Y011392D02*
X024845Y011392D01*
X024842Y011630D02*
X024915Y011630D01*
X025045Y011869D02*
X024697Y011869D01*
X024665Y012107D02*
X025169Y012107D01*
X025385Y012107D02*
X025385Y012107D01*
X025385Y012010D02*
X025385Y011270D01*
X025385Y011270D01*
X025865Y011270D01*
X025865Y011568D01*
X025853Y011643D01*
X025830Y011714D01*
X025796Y011782D01*
X025751Y011843D01*
X025698Y011896D01*
X025637Y011941D01*
X025569Y011975D01*
X025498Y011998D01*
X025423Y012010D01*
X025385Y012010D01*
X025385Y011869D02*
X025385Y011869D01*
X025385Y011630D02*
X025385Y011630D01*
X025725Y011869D02*
X026065Y011869D01*
X026065Y012107D02*
X025601Y012107D01*
X025385Y012346D02*
X025385Y012346D01*
X024931Y012346D02*
X024843Y012346D01*
X025839Y012346D02*
X025959Y012346D01*
X026385Y012570D02*
X026385Y011270D01*
X025925Y011153D02*
X025865Y011153D01*
X025856Y010915D02*
X025927Y010915D01*
X026069Y010676D02*
X025730Y010676D01*
X025385Y010676D02*
X025385Y010676D01*
X025385Y010915D02*
X025385Y010915D01*
X025385Y011153D02*
X025385Y011153D01*
X025385Y011392D02*
X025385Y011392D01*
X025865Y011392D02*
X025925Y011392D01*
X025929Y011630D02*
X025855Y011630D01*
X026705Y011869D02*
X027073Y011869D01*
X027181Y012107D02*
X026705Y012107D01*
X026811Y012346D02*
X026943Y012346D01*
X026917Y012584D02*
X026845Y012584D01*
X027274Y013061D02*
X028280Y013061D01*
X028305Y013300D02*
X027215Y013300D01*
X027215Y013538D02*
X028305Y013538D01*
X028305Y013777D02*
X027859Y013777D01*
X027585Y013777D02*
X027585Y013777D01*
X027585Y014015D02*
X027585Y014015D01*
X027585Y014254D02*
X027585Y014254D01*
X028064Y014015D02*
X028129Y014015D01*
X028865Y013795D02*
X028868Y013796D01*
X029009Y013937D01*
X029085Y014121D01*
X029085Y014920D01*
X029085Y014121D01*
X029161Y013937D01*
X029302Y013796D01*
X029305Y013795D01*
X029305Y013586D01*
X028865Y013146D01*
X028865Y013795D01*
X028865Y013777D02*
X029305Y013777D01*
X029257Y013538D02*
X028865Y013538D01*
X028865Y013300D02*
X029019Y013300D01*
X028042Y012823D02*
X027767Y012823D01*
X027880Y011869D02*
X028073Y011869D01*
X027929Y011630D02*
X027842Y011630D01*
X027845Y011392D02*
X027925Y011392D01*
X027925Y011153D02*
X027845Y011153D01*
X027843Y010915D02*
X027927Y010915D01*
X028069Y010676D02*
X027702Y010676D01*
X027069Y010676D02*
X026702Y010676D01*
X026843Y010915D02*
X026927Y010915D01*
X026925Y011153D02*
X026845Y011153D01*
X026845Y011392D02*
X026925Y011392D01*
X026929Y011630D02*
X026842Y011630D01*
X023105Y012107D02*
X022665Y012107D01*
X022697Y011869D02*
X023073Y011869D01*
X022929Y011630D02*
X022842Y011630D01*
X022845Y011392D02*
X022925Y011392D01*
X022925Y011153D02*
X022845Y011153D01*
X022843Y010915D02*
X022927Y010915D01*
X023069Y010676D02*
X022702Y010676D01*
X022506Y012346D02*
X022928Y012346D01*
X027215Y013777D02*
X027311Y013777D01*
X029041Y014015D02*
X029129Y014015D01*
X029085Y014254D02*
X029085Y014254D01*
X029085Y014492D02*
X029085Y014492D01*
X029085Y014731D02*
X029085Y014731D01*
X029065Y014969D02*
X029106Y014969D01*
X029266Y015208D02*
X028905Y015208D01*
X028266Y015208D02*
X027933Y015208D01*
X028083Y014969D02*
X028106Y014969D01*
X035985Y012270D02*
X037185Y012270D01*
X036478Y011869D02*
X038492Y011869D01*
X038435Y011630D02*
X036536Y011630D01*
X036693Y011392D02*
X038278Y011392D01*
X038276Y011153D02*
X036695Y011153D01*
X036737Y010915D02*
X038430Y010915D01*
X038503Y010676D02*
X036975Y010676D01*
X037115Y010438D02*
X038297Y010438D01*
X038265Y010362D02*
X038265Y010179D01*
X038335Y010010D01*
X038465Y009880D01*
X038634Y009810D01*
X039337Y009810D01*
X039506Y009880D01*
X039616Y009990D01*
X040160Y009990D01*
X040161Y009987D01*
X040302Y009846D01*
X040486Y009770D01*
X041285Y009770D01*
X041468Y009846D01*
X041609Y009987D01*
X041685Y010171D01*
X041685Y010370D01*
X041609Y010553D01*
X041468Y010694D01*
X041285Y010770D01*
X040486Y010770D01*
X040302Y010694D01*
X040161Y010553D01*
X040160Y010550D01*
X039616Y010550D01*
X039506Y010660D01*
X039337Y010730D01*
X038634Y010730D01*
X038465Y010660D01*
X038335Y010531D01*
X038265Y010362D01*
X038265Y010199D02*
X037115Y010199D01*
X037115Y009961D02*
X038384Y009961D01*
X038614Y009722D02*
X037115Y009722D01*
X037115Y009484D02*
X038316Y009484D01*
X038265Y009245D02*
X037115Y009245D01*
X037115Y009007D02*
X038338Y009007D01*
X038985Y008750D02*
X038985Y008270D01*
X038985Y008270D01*
X039725Y008270D01*
X039725Y008308D01*
X039713Y008383D01*
X039690Y008454D01*
X039656Y008522D01*
X039611Y008583D01*
X039558Y008636D01*
X039497Y008681D01*
X039429Y008715D01*
X039358Y008738D01*
X039283Y008750D01*
X038985Y008750D01*
X038985Y008530D02*
X038985Y008530D01*
X038985Y008291D02*
X038985Y008291D01*
X038985Y008053D02*
X038985Y008053D01*
X038985Y007814D02*
X038985Y007814D01*
X038575Y007814D02*
X037115Y007814D01*
X037115Y008053D02*
X038297Y008053D01*
X038245Y008291D02*
X037115Y008291D01*
X037115Y008530D02*
X038320Y008530D01*
X037115Y008768D02*
X040481Y008768D01*
X040151Y008530D02*
X039650Y008530D01*
X039725Y008291D02*
X039910Y008291D01*
X040225Y007814D02*
X040379Y007814D01*
X040184Y007576D02*
X039987Y007576D01*
X039956Y007337D02*
X039748Y007337D01*
X039718Y007099D02*
X039672Y007099D01*
X039479Y006860D02*
X039457Y006860D01*
X040271Y006860D02*
X040288Y006860D01*
X040230Y006622D02*
X040033Y006622D01*
X040002Y006383D02*
X039794Y006383D01*
X039764Y006145D02*
X039691Y006145D01*
X040079Y005668D02*
X040276Y005668D01*
X039810Y005191D02*
X039705Y005191D01*
X040125Y004714D02*
X041728Y004714D01*
X041855Y004952D02*
X041574Y004952D01*
X041685Y005191D02*
X041855Y005191D01*
X041855Y005429D02*
X041660Y005429D01*
X041495Y005668D02*
X041855Y005668D01*
X041855Y005906D02*
X041528Y005906D01*
X041674Y006145D02*
X041855Y006145D01*
X041855Y006383D02*
X041680Y006383D01*
X041541Y006622D02*
X041855Y006622D01*
X041855Y006860D02*
X041482Y006860D01*
X041655Y007099D02*
X041855Y007099D01*
X041855Y007337D02*
X041685Y007337D01*
X041587Y007576D02*
X041855Y007576D01*
X041855Y007814D02*
X041391Y007814D01*
X041636Y008053D02*
X041855Y008053D01*
X041855Y008291D02*
X041685Y008291D01*
X041619Y008530D02*
X041855Y008530D01*
X041855Y008768D02*
X041289Y008768D01*
X041617Y009007D02*
X041855Y009007D01*
X041855Y009245D02*
X041685Y009245D01*
X041638Y009484D02*
X041855Y009484D01*
X041855Y009722D02*
X041400Y009722D01*
X041583Y009961D02*
X041855Y009961D01*
X041855Y010199D02*
X041685Y010199D01*
X041657Y010438D02*
X041855Y010438D01*
X041855Y010676D02*
X041486Y010676D01*
X041537Y010915D02*
X041855Y010915D01*
X041855Y011153D02*
X041678Y011153D01*
X041676Y011392D02*
X041855Y011392D01*
X041855Y011630D02*
X041532Y011630D01*
X041491Y011869D02*
X041855Y011869D01*
X041855Y012107D02*
X041659Y012107D01*
X041685Y012346D02*
X041855Y012346D01*
X041855Y012584D02*
X041578Y012584D01*
X040279Y011869D02*
X039478Y011869D01*
X039536Y011630D02*
X040238Y011630D01*
X040233Y010915D02*
X039540Y010915D01*
X039467Y010676D02*
X040284Y010676D01*
X040187Y009961D02*
X039586Y009961D01*
X039356Y009722D02*
X040370Y009722D01*
X039433Y007814D02*
X039395Y007814D01*
X038380Y007576D02*
X037115Y007576D01*
X037115Y007337D02*
X038265Y007337D01*
X038298Y007099D02*
X037115Y007099D01*
X037115Y006860D02*
X038513Y006860D01*
X038426Y006622D02*
X037115Y006622D01*
X037115Y006383D02*
X038274Y006383D01*
X038279Y006145D02*
X037115Y006145D01*
X037017Y005906D02*
X038439Y005906D01*
X038483Y005668D02*
X036779Y005668D01*
X036677Y005429D02*
X038293Y005429D01*
X038265Y005191D02*
X036705Y005191D01*
X036578Y004952D02*
X038393Y004952D01*
X039648Y004237D02*
X039656Y004237D01*
X039886Y004475D02*
X039919Y004475D01*
X039320Y003283D02*
X018638Y003283D01*
X017965Y003283D02*
X016666Y003283D01*
X016782Y003521D02*
X017842Y003521D01*
X017842Y003760D02*
X016782Y003760D01*
X016592Y003998D02*
X016579Y003998D01*
X016302Y003521D02*
X016302Y003521D01*
X016302Y003283D02*
X016302Y003283D01*
X017579Y003998D02*
X018022Y003998D01*
X017842Y004237D02*
X017819Y004237D01*
X021513Y004237D02*
X026366Y004237D01*
X026604Y004475D02*
X025761Y004475D01*
X025845Y004714D02*
X026665Y004714D01*
X026665Y004952D02*
X025834Y004952D01*
X025385Y004750D02*
X025385Y005920D01*
X024385Y006920D01*
X024385Y008270D01*
X024845Y008291D02*
X024925Y008291D01*
X024925Y008053D02*
X024845Y008053D01*
X024925Y007919D02*
X024995Y007750D01*
X025065Y007680D01*
X025065Y007401D01*
X024925Y007261D01*
X024925Y006880D01*
X025195Y006610D01*
X025576Y006610D01*
X025845Y006880D01*
X025845Y007261D01*
X025705Y007401D01*
X025705Y007680D01*
X025775Y007750D01*
X025845Y007919D01*
X025845Y008622D01*
X025775Y008791D01*
X025646Y008920D01*
X025477Y008990D01*
X025294Y008990D01*
X025125Y008920D01*
X024995Y008791D01*
X024925Y008622D01*
X024925Y007919D01*
X024968Y007814D02*
X024802Y007814D01*
X024705Y007576D02*
X025065Y007576D01*
X025002Y007337D02*
X024705Y007337D01*
X024705Y007099D02*
X024925Y007099D01*
X024945Y006860D02*
X024898Y006860D01*
X025385Y007070D02*
X025385Y008270D01*
X025845Y008291D02*
X025905Y008291D01*
X025905Y008270D02*
X026385Y008270D01*
X026385Y008270D01*
X026385Y007550D01*
X026385Y007070D01*
X026385Y005920D01*
X026385Y006400D01*
X026385Y005920D01*
X026385Y005920D01*
X026385Y005906D02*
X026385Y005906D01*
X026385Y006145D02*
X026385Y006145D01*
X026385Y006383D02*
X026385Y006383D01*
X026169Y006383D02*
X025375Y006383D01*
X025183Y006622D02*
X025136Y006622D01*
X025587Y006622D02*
X026155Y006622D01*
X026385Y006622D02*
X026385Y006622D01*
X026615Y006622D02*
X026665Y006622D01*
X026665Y006383D02*
X026601Y006383D01*
X025931Y006145D02*
X025811Y006145D01*
X025845Y005906D02*
X025905Y005906D01*
X025959Y005668D02*
X025783Y005668D01*
X025705Y005429D02*
X026665Y005429D01*
X026665Y005191D02*
X025705Y005191D01*
X025065Y005191D02*
X024235Y005191D01*
X024033Y005429D02*
X025065Y005429D01*
X024987Y005668D02*
X024090Y005668D01*
X024235Y005906D02*
X024925Y005906D01*
X024708Y006145D02*
X024235Y006145D01*
X024165Y006383D02*
X024470Y006383D01*
X024231Y006622D02*
X024165Y006622D01*
X023605Y006622D02*
X021733Y006622D01*
X021631Y006520D02*
X022251Y007140D01*
X022991Y007140D01*
X023094Y007183D01*
X023461Y007550D01*
X023477Y007550D01*
X023605Y007603D01*
X023605Y006520D01*
X023528Y006520D01*
X023235Y006227D01*
X022942Y006520D01*
X022528Y006520D01*
X022235Y006227D01*
X021942Y006520D01*
X021631Y006520D01*
X022079Y006383D02*
X022391Y006383D01*
X022235Y006227D02*
X022235Y005813D01*
X021942Y005520D01*
X021881Y005520D01*
X021881Y005520D01*
X021942Y005520D01*
X022221Y005241D01*
X022514Y005534D01*
X022235Y005813D01*
X022235Y006227D01*
X022235Y006145D02*
X022235Y006145D01*
X022235Y005906D02*
X022235Y005906D01*
X022090Y005668D02*
X022381Y005668D01*
X022409Y005429D02*
X022033Y005429D01*
X023061Y005429D02*
X023437Y005429D01*
X023381Y005668D02*
X023090Y005668D01*
X023235Y005906D02*
X023235Y005906D01*
X023235Y006145D02*
X023235Y006145D01*
X023079Y006383D02*
X023391Y006383D01*
X023605Y006860D02*
X021971Y006860D01*
X022210Y007099D02*
X023605Y007099D01*
X023605Y007337D02*
X023248Y007337D01*
X023538Y007576D02*
X023605Y007576D01*
X025705Y007576D02*
X026181Y007576D01*
X026385Y007576D02*
X026385Y007576D01*
X026385Y007337D02*
X026385Y007337D01*
X026385Y007099D02*
X026385Y007099D01*
X026385Y007070D02*
X026385Y007070D01*
X026385Y008270D01*
X025905Y008270D01*
X025905Y008053D02*
X025845Y008053D01*
X025802Y007814D02*
X025946Y007814D01*
X026385Y007814D02*
X026385Y007814D01*
X026385Y008053D02*
X026385Y008053D01*
X026385Y008270D02*
X026385Y007070D01*
X026385Y006860D02*
X026385Y006860D01*
X025916Y006860D02*
X025826Y006860D01*
X025845Y007099D02*
X025905Y007099D01*
X025973Y007337D02*
X025769Y007337D01*
X026385Y008270D02*
X026385Y008270D01*
X026385Y009010D01*
X026385Y008270D01*
X026385Y008270D01*
X026385Y008291D02*
X026385Y008291D01*
X026385Y008530D02*
X026385Y008530D01*
X025905Y008530D02*
X025845Y008530D01*
X025784Y008768D02*
X025968Y008768D01*
X026385Y008768D02*
X026385Y008768D01*
X026385Y009007D02*
X026385Y009007D01*
X026325Y009007D02*
X024095Y009007D01*
X023856Y009245D02*
X027014Y009245D01*
X026776Y009007D02*
X026445Y009007D01*
X024986Y008768D02*
X024784Y008768D01*
X024845Y008530D02*
X024925Y008530D01*
X028033Y006622D02*
X029943Y006622D01*
X030165Y006530D02*
X030165Y006050D01*
X030165Y006050D01*
X030645Y006050D01*
X030645Y006249D01*
X030364Y006530D01*
X030165Y006530D01*
X030165Y006383D02*
X030165Y006383D01*
X030165Y006145D02*
X030165Y006145D01*
X029819Y006383D02*
X027794Y006383D01*
X027556Y006145D02*
X029685Y006145D01*
X029685Y005906D02*
X027515Y005906D01*
X027515Y005668D02*
X029869Y005668D01*
X029867Y005429D02*
X027515Y005429D01*
X027515Y005191D02*
X028175Y005191D01*
X028595Y005191D02*
X029770Y005191D01*
X029765Y004952D02*
X028834Y004952D01*
X028845Y004714D02*
X029765Y004714D01*
X029766Y004475D02*
X029076Y004475D01*
X029315Y004237D02*
X029848Y004237D01*
X030285Y004237D02*
X030285Y004237D01*
X030285Y004475D02*
X030285Y004475D01*
X030285Y004714D02*
X030285Y004714D01*
X030722Y004237D02*
X030862Y004237D01*
X031709Y004237D02*
X036273Y004237D01*
X036034Y004475D02*
X031785Y004475D01*
X031785Y004714D02*
X032131Y004714D01*
X031975Y004952D02*
X031785Y004952D01*
X031802Y005191D02*
X031975Y005191D01*
X032040Y005429D02*
X032154Y005429D01*
X032279Y005668D02*
X032917Y005668D01*
X033121Y005906D02*
X032517Y005906D01*
X032707Y006145D02*
X035220Y006145D01*
X034998Y006383D02*
X032715Y006383D01*
X032715Y006622D02*
X034777Y006622D01*
X034556Y006860D02*
X032886Y006860D01*
X032895Y007099D02*
X034335Y007099D01*
X034114Y007337D02*
X032809Y007337D01*
X032715Y007576D02*
X033893Y007576D01*
X033672Y007814D02*
X032802Y007814D01*
X032845Y008053D02*
X033450Y008053D01*
X033229Y008291D02*
X032845Y008291D01*
X032845Y008530D02*
X033008Y008530D01*
X031925Y008530D02*
X031845Y008530D01*
X031845Y008291D02*
X031925Y008291D01*
X031925Y008053D02*
X031845Y008053D01*
X031802Y007814D02*
X031968Y007814D01*
X032155Y007576D02*
X031538Y007576D01*
X031649Y007337D02*
X032062Y007337D01*
X031232Y007576D02*
X031087Y007576D01*
X030922Y007337D02*
X030848Y007337D01*
X030825Y007099D02*
X030625Y007099D01*
X030387Y006622D02*
X031063Y006622D01*
X031285Y006530D02*
X031285Y006050D01*
X031285Y006050D01*
X031765Y006050D01*
X031765Y006249D01*
X031484Y006530D01*
X031285Y006530D01*
X031285Y006383D02*
X031285Y006383D01*
X031285Y006145D02*
X031285Y006145D01*
X030939Y006383D02*
X030511Y006383D01*
X030645Y006145D02*
X030805Y006145D01*
X030805Y005906D02*
X030645Y005906D01*
X030461Y005668D02*
X030989Y005668D01*
X030887Y005429D02*
X030703Y005429D01*
X031765Y006145D02*
X031964Y006145D01*
X032155Y006383D02*
X031631Y006383D01*
X031507Y006622D02*
X032155Y006622D01*
X033450Y005429D02*
X035293Y005429D01*
X035265Y005191D02*
X033246Y005191D01*
X033041Y004952D02*
X035393Y004952D01*
X035796Y004714D02*
X032739Y004714D01*
X029238Y003521D02*
X026832Y003521D01*
X027071Y003760D02*
X029000Y003760D01*
X028761Y003998D02*
X027309Y003998D01*
X027504Y004237D02*
X028523Y004237D01*
X028010Y004475D02*
X027515Y004475D01*
X027515Y004714D02*
X027925Y004714D01*
X027937Y004952D02*
X027515Y004952D01*
X026385Y005668D02*
X026385Y005668D01*
X024937Y004952D02*
X024235Y004952D01*
X024136Y004714D02*
X024925Y004714D01*
X025010Y004475D02*
X021505Y004475D01*
X022136Y004714D02*
X022306Y004714D01*
X022735Y004714D02*
X022735Y004714D01*
X022735Y004952D02*
X022735Y004952D01*
X023164Y004714D02*
X023335Y004714D01*
X020756Y007337D02*
X020548Y007337D01*
X020665Y007576D02*
X020995Y007576D01*
X020968Y007814D02*
X020802Y007814D01*
X020845Y008053D02*
X020925Y008053D01*
X020925Y008291D02*
X020845Y008291D01*
X020845Y008530D02*
X020925Y008530D01*
X020986Y008768D02*
X020784Y008768D01*
X016695Y010438D02*
X016695Y010438D01*
X016580Y011153D02*
X016064Y011153D01*
X016303Y011392D02*
X016575Y011392D01*
X016575Y011630D02*
X016541Y011630D01*
X015826Y012107D02*
X014970Y012107D01*
X014970Y012346D02*
X016065Y012346D01*
X016303Y012584D02*
X014890Y012584D01*
X013979Y012584D02*
X009867Y012584D01*
X010106Y012346D02*
X013900Y012346D01*
X013900Y012107D02*
X010344Y012107D01*
X010583Y011869D02*
X014093Y011869D01*
X014777Y011869D02*
X015588Y011869D01*
X008346Y010438D02*
X003415Y010438D01*
X003415Y010199D02*
X008195Y010199D01*
X008065Y009961D02*
X003415Y009961D01*
X003415Y009722D02*
X008001Y009722D01*
X007945Y009484D02*
X003568Y009484D01*
X003806Y009245D02*
X007945Y009245D01*
X007950Y009007D02*
X006002Y009007D01*
X006160Y008768D02*
X008014Y008768D01*
X008086Y008530D02*
X006160Y008530D01*
X006120Y008291D02*
X008224Y008291D01*
X008396Y008053D02*
X006169Y008053D01*
X006407Y007814D02*
X008635Y007814D01*
X009030Y007576D02*
X006646Y007576D01*
X006092Y007337D02*
X005614Y007337D01*
X005386Y007576D02*
X005854Y007576D01*
X005615Y007814D02*
X005164Y007814D01*
X005189Y008053D02*
X004941Y008053D01*
X004950Y008291D02*
X004719Y008291D01*
X004910Y008530D02*
X004496Y008530D01*
X004273Y008768D02*
X004910Y008768D01*
X005068Y009007D02*
X004045Y009007D01*
X002555Y009961D02*
X002502Y009961D01*
X001045Y003998D02*
X000779Y003998D01*
X003559Y003044D02*
X009804Y003044D01*
X010466Y003044D02*
X039211Y003044D01*
D28*
X025235Y016120D03*
X022535Y016120D03*
D29*
X017465Y013158D02*
X017339Y013283D01*
X014435Y013283D01*
X005852Y013283D01*
X005852Y013284D02*
X005824Y013286D01*
X005796Y013291D01*
X005769Y013300D01*
X005744Y013313D01*
X005721Y013329D01*
X005699Y013347D01*
X005681Y013369D01*
X005665Y013392D01*
X005652Y013417D01*
X005643Y013444D01*
X005638Y013472D01*
X005636Y013500D01*
X002385Y008570D02*
X001885Y008570D01*
X002385Y008570D02*
X005387Y005470D01*
X005457Y005400D01*
X008835Y005400D01*
X008865Y005370D01*
X008865Y004400D01*
X008835Y005400D02*
X010115Y005400D01*
X010135Y005420D01*
X018075Y005420D01*
X018078Y005423D01*
X018078Y005420D01*
X016302Y004409D02*
X016278Y004433D01*
X005435Y005420D02*
X005387Y005470D01*
D30*
X016278Y004433D02*
X017348Y004433D01*
X018078Y005163D01*
X018078Y005423D01*
M02*
